<svg id="svg" version="1.1" xmlns="http://www.w3.org/2000/svg" xmlns:xlink="http://www.w3.org/1999/xlink" width="400" height="400" viewBox="0, 0, 400,400"><g id="svgg"><path id="path0" d="M96.400 42.857 C 96.399 43.678,100.075 43.873,100.728 43.086 C 101.067 42.678,100.669 42.576,98.778 42.586 C 97.470 42.594,96.401 42.716,96.400 42.857 M253.608 43.010 C 253.896 43.356,255.056 43.390,260.500 43.210 C 260.665 43.204,260.800 43.065,260.800 42.900 C 260.799 42.735,259.104 42.600,257.033 42.600 C 254.506 42.600,253.379 42.735,253.608 43.010 M303.600 54.976 C 303.600 55.867,304.226 56.044,304.292 55.172 C 304.324 54.748,304.181 54.400,303.975 54.400 C 303.769 54.400,303.600 54.659,303.600 54.976 M297.327 62.267 C 295.967 63.653,294.977 64.851,295.127 64.931 C 295.277 65.010,296.505 63.932,297.856 62.534 C 299.207 61.136,300.197 59.938,300.056 59.870 C 299.915 59.803,298.687 60.882,297.327 62.267 M309.100 65.476 C 308.715 65.576,308.400 65.983,308.400 66.380 C 308.400 67.239,307.398 68.170,306.844 67.827 C 306.628 67.694,305.970 68.217,305.382 68.989 C 304.793 69.761,304.163 70.301,303.983 70.190 C 303.803 70.078,303.542 70.170,303.404 70.393 C 303.266 70.617,303.343 70.800,303.576 70.800 C 304.497 70.800,303.880 71.724,301.169 74.403 C 299.613 75.941,297.993 77.200,297.569 77.200 C 297.059 77.200,296.800 77.478,296.800 78.023 C 296.800 78.572,292.509 83.101,283.900 91.638 C 276.805 98.674,267.760 107.670,263.800 111.630 C 259.840 115.590,256.352 119.048,256.049 119.315 C 255.746 119.582,254.808 120.475,253.965 121.300 C 252.345 122.885,251.774 123.117,251.498 122.300 C 251.405 122.025,246.740 126.390,241.132 132.000 C 235.524 137.610,230.140 142.939,229.168 143.843 C 228.196 144.747,226.571 146.408,225.558 147.534 C 224.545 148.661,223.600 149.466,223.458 149.325 C 223.316 149.183,223.200 149.290,223.200 149.562 C 223.200 150.170,222.436 150.955,221.500 151.310 C 221.115 151.456,220.800 151.851,220.800 152.187 C 220.800 152.524,220.524 152.800,220.187 152.800 C 219.851 152.800,219.474 153.063,219.351 153.384 C 219.145 153.919,215.600 157.674,215.600 157.356 C 215.600 156.981,211.321 161.498,211.082 162.125 C 210.930 162.524,210.645 162.751,210.448 162.630 C 209.875 162.275,208.999 163.625,209.133 164.656 C 209.202 165.175,209.075 165.600,208.852 165.600 C 208.212 165.600,207.942 164.890,208.498 164.666 C 208.878 164.512,208.870 164.456,208.463 164.432 C 208.167 164.414,207.831 164.758,207.717 165.196 C 207.597 165.655,207.317 165.876,207.055 165.719 C 206.768 165.547,206.783 165.672,207.094 166.057 C 207.494 166.551,207.475 166.667,206.994 166.667 C 206.667 166.667,206.400 166.487,206.400 166.267 C 206.400 166.047,206.284 165.982,206.143 166.124 C 206.002 166.265,206.137 166.689,206.443 167.065 C 206.932 167.666,206.917 167.719,206.320 167.495 C 205.835 167.313,205.704 167.406,205.863 167.820 C 206.003 168.184,205.837 168.400,205.419 168.400 C 205.053 168.400,204.864 168.220,205.000 168.000 C 205.497 167.196,204.845 167.635,203.410 169.070 C 202.601 169.879,201.916 170.856,201.887 171.242 C 201.858 171.629,201.728 171.879,201.598 171.799 C 201.291 171.609,200.210 172.278,200.165 172.685 C 200.053 173.711,198.761 175.651,198.214 175.614 C 196.896 175.526,196.623 175.627,197.197 175.989 C 197.705 176.311,197.711 176.443,197.238 176.883 C 196.781 177.309,196.739 177.301,197.003 176.838 C 197.220 176.459,197.172 176.370,196.855 176.566 C 196.598 176.725,196.495 177.031,196.628 177.245 C 196.760 177.459,196.272 178.156,195.543 178.792 C 194.123 180.032,193.436 180.086,194.536 178.871 C 195.477 177.831,195.363 177.437,194.400 178.400 C 193.960 178.840,193.600 179.391,193.600 179.624 C 193.600 179.857,193.440 179.949,193.245 179.828 C 192.817 179.563,191.782 180.716,192.134 181.067 C 192.270 181.203,192.494 181.020,192.632 180.660 C 192.771 180.299,193.046 180.105,193.244 180.227 C 193.442 180.349,192.971 181.113,192.198 181.925 C 191.128 183.047,190.710 183.272,190.451 182.866 C 190.177 182.437,190.064 182.456,189.868 182.966 C 189.735 183.315,189.812 183.600,190.041 183.600 C 190.270 183.600,190.176 183.881,189.832 184.226 C 189.488 184.570,188.997 184.722,188.741 184.564 C 188.443 184.380,188.385 184.452,188.578 184.764 C 188.772 185.079,187.167 186.946,184.056 190.026 C 179.145 194.887,178.628 195.313,179.082 194.131 C 179.293 193.581,179.199 193.598,178.558 194.231 C 178.042 194.739,177.942 195.042,178.264 195.125 C 178.608 195.213,178.553 195.489,178.075 196.069 C 176.758 197.669,176.334 198.000,175.602 198.000 C 174.846 198.000,172.400 200.162,172.400 200.831 C 172.400 201.034,172.220 201.200,172.000 201.200 C 171.780 201.200,171.600 201.470,171.600 201.800 C 171.600 202.130,171.780 202.400,172.000 202.400 C 172.220 202.400,172.400 202.594,172.400 202.832 C 172.400 203.103,171.955 203.166,171.200 203.000 C 170.121 202.763,170.000 202.836,170.000 203.717 C 170.000 204.554,170.238 204.736,171.617 204.956 C 172.507 205.099,173.632 205.420,174.117 205.670 C 175.992 206.636,176.409 206.800,176.995 206.800 C 177.328 206.800,177.600 206.980,177.600 207.200 C 177.600 207.420,177.872 207.600,178.205 207.600 C 178.538 207.600,179.213 207.808,179.705 208.062 C 181.631 209.058,182.017 209.200,182.795 209.200 C 183.238 209.200,183.600 209.380,183.600 209.600 C 183.600 209.820,183.872 210.000,184.205 210.000 C 184.538 210.000,185.123 210.160,185.505 210.356 C 187.013 211.130,190.687 212.725,193.100 213.654 C 193.595 213.844,194.405 214.156,194.900 214.346 C 197.124 215.203,198.373 215.884,200.800 217.565 C 204.012 219.790,207.488 223.023,208.249 224.495 C 208.905 225.762,208.597 225.948,207.647 224.857 C 202.586 219.041,199.366 216.779,192.200 214.005 C 190.880 213.493,189.629 212.923,189.420 212.738 C 189.211 212.552,188.797 212.400,188.501 212.400 C 188.204 212.400,187.216 212.040,186.306 211.600 C 185.395 211.160,184.324 210.800,183.925 210.800 C 183.526 210.800,183.200 210.620,183.200 210.400 C 183.200 210.180,182.750 210.000,182.200 210.000 C 181.650 210.000,181.200 209.820,181.200 209.600 C 181.200 209.380,180.928 209.200,180.595 209.200 C 180.262 209.200,179.677 209.041,179.295 208.847 C 178.913 208.652,178.060 208.271,177.400 208.000 C 176.740 207.729,175.887 207.348,175.505 207.153 C 175.123 206.959,174.538 206.800,174.205 206.800 C 173.872 206.800,173.600 206.620,173.600 206.400 C 173.600 206.180,173.150 206.000,172.600 206.000 C 172.050 206.000,171.600 205.813,171.600 205.584 C 171.600 205.349,170.902 205.209,170.000 205.262 C 168.780 205.334,168.400 205.522,168.400 206.055 C 168.400 206.439,168.211 206.869,167.981 207.012 C 167.694 207.189,167.709 207.450,168.030 207.836 C 168.287 208.146,168.341 208.401,168.149 208.403 C 167.752 208.407,166.800 210.295,166.800 211.080 C 166.800 211.366,166.620 211.600,166.400 211.600 C 166.180 211.600,166.000 212.230,166.000 213.000 C 166.000 213.770,165.820 214.400,165.600 214.400 C 165.380 214.400,165.200 214.745,165.200 215.167 C 165.200 215.588,165.023 215.993,164.807 216.067 C 164.591 216.140,164.366 216.875,164.307 217.699 C 164.248 218.524,164.065 219.199,163.900 219.199 C 163.735 219.200,163.600 219.472,163.600 219.805 C 163.600 220.138,163.442 220.723,163.249 221.105 C 163.056 221.487,162.681 222.520,162.415 223.400 C 162.150 224.280,161.588 225.763,161.166 226.696 C 160.745 227.628,160.400 228.569,160.400 228.787 C 160.400 229.005,159.950 230.524,159.400 232.162 C 158.850 233.801,158.400 235.604,158.400 236.171 C 158.400 236.737,158.220 237.200,158.000 237.200 C 157.780 237.200,157.600 237.560,157.600 238.000 C 157.600 238.440,157.420 238.800,157.200 238.800 C 156.980 238.800,156.800 239.520,156.800 240.400 C 156.800 241.280,156.620 242.000,156.400 242.000 C 156.180 242.000,156.000 242.450,156.000 243.000 C 156.000 243.550,155.807 244.000,155.571 244.000 C 155.336 244.000,155.413 244.270,155.743 244.600 C 156.073 244.930,156.416 245.200,156.506 245.200 C 156.596 245.200,163.760 252.310,172.425 261.000 C 186.759 275.374,188.299 276.800,189.490 276.800 C 190.211 276.800,190.800 276.620,190.800 276.400 C 190.800 276.180,191.340 276.000,192.000 276.000 C 192.660 276.000,193.200 275.820,193.200 275.600 C 193.200 275.380,193.560 275.200,194.000 275.200 C 194.440 275.200,194.800 275.065,194.801 274.900 C 194.801 274.735,195.361 274.561,196.045 274.513 C 196.728 274.465,197.542 274.214,197.853 273.956 C 198.165 273.697,198.525 273.592,198.654 273.721 C 198.885 273.952,202.740 272.718,204.095 271.979 C 204.477 271.770,205.116 271.600,205.515 271.600 C 205.914 271.600,206.419 271.421,206.638 271.202 C 206.856 270.984,207.522 270.764,208.118 270.715 C 208.713 270.666,209.200 270.485,209.200 270.313 C 209.200 270.141,209.650 270.000,210.200 270.000 C 210.750 270.000,211.200 269.853,211.200 269.672 C 211.200 269.333,215.168 268.123,215.700 268.300 C 215.865 268.355,216.000 268.220,216.000 268.000 C 216.000 267.780,216.360 267.600,216.800 267.600 C 217.240 267.600,217.600 267.420,217.600 267.200 C 217.600 266.980,218.219 266.800,218.976 266.800 C 219.733 266.800,220.464 266.620,220.600 266.400 C 220.736 266.180,221.197 266.000,221.624 266.000 C 222.051 266.000,222.400 265.831,222.400 265.625 C 222.400 265.419,222.985 265.194,223.700 265.125 C 225.300 264.971,225.588 263.844,224.584 261.671 C 224.211 260.862,223.677 259.660,223.399 259.000 C 223.121 258.340,222.512 256.947,222.047 255.904 C 221.581 254.862,221.200 253.915,221.200 253.800 C 221.200 253.685,220.819 252.738,220.353 251.696 C 219.531 249.854,218.893 248.384,217.753 245.700 C 217.449 244.985,216.947 243.815,216.639 243.100 C 216.330 242.385,215.229 239.730,214.193 237.200 C 212.091 232.071,210.682 229.145,209.517 227.494 C 209.088 226.886,208.796 226.230,208.869 226.037 C 209.164 225.246,275.886 158.143,330.080 104.132 L 338.759 95.481 338.163 94.329 C 337.835 93.695,337.692 92.974,337.845 92.726 C 338.020 92.445,337.943 92.388,337.640 92.575 C 337.349 92.755,336.688 92.383,335.975 91.637 C 335.325 90.957,334.504 90.400,334.150 90.400 C 333.704 90.400,333.571 90.155,333.716 89.600 C 333.838 89.133,333.728 88.800,333.451 88.800 C 333.191 88.800,332.696 88.485,332.351 88.100 C 332.007 87.715,331.337 87.135,330.862 86.812 C 330.388 86.488,330.000 86.071,330.000 85.885 C 330.000 85.335,327.138 82.800,326.517 82.800 C 326.203 82.800,325.313 82.125,324.538 81.300 C 316.952 73.219,310.928 67.198,310.420 67.187 C 309.898 67.177,309.911 67.090,310.500 66.643 C 311.915 65.569,311.157 64.938,309.100 65.476 M162.800 66.229 C 162.800 66.527,163.875 67.600,164.175 67.600 C 164.302 67.600,164.182 67.240,163.907 66.800 C 163.438 66.049,162.800 65.720,162.800 66.229 M190.460 69.451 C 189.943 70.002,189.627 70.560,189.757 70.691 C 190.019 70.953,191.600 69.279,191.600 68.739 C 191.600 68.269,191.525 68.316,190.460 69.451 M31.260 69.842 C 30.531 70.666,31.000 71.057,31.781 70.276 C 32.121 69.936,32.400 69.554,32.400 69.429 C 32.400 69.009,31.806 69.224,31.260 69.842 M29.458 71.625 C 29.050 72.022,28.780 72.494,28.858 72.674 C 28.936 72.853,29.394 72.599,29.877 72.109 C 30.924 71.044,30.526 70.585,29.458 71.625 M27.293 74.000 C 27.018 74.440,26.898 74.800,27.025 74.800 C 27.325 74.800,28.400 73.727,28.400 73.429 C 28.400 72.920,27.762 73.249,27.293 74.000 M185.310 74.600 C 183.977 76.052,184.084 76.527,185.467 75.300 C 186.120 74.721,187.002 73.200,186.685 73.200 C 186.635 73.200,186.016 73.830,185.310 74.600 M174.400 78.157 C 174.400 78.734,175.554 79.379,175.924 79.009 C 176.039 78.894,175.923 78.800,175.667 78.800 C 175.410 78.800,175.200 78.530,175.200 78.200 C 175.200 77.870,175.020 77.600,174.800 77.600 C 174.580 77.600,174.400 77.851,174.400 78.157 M11.082 96.531 C 10.296 97.731,10.244 98.000,10.800 98.000 C 11.020 98.000,11.200 97.745,11.200 97.433 C 11.200 97.122,11.407 96.798,11.660 96.713 C 11.913 96.629,12.040 96.319,11.942 96.025 C 11.822 95.667,11.539 95.833,11.082 96.531 M9.700 99.423 C 9.111 100.063,9.062 100.400,9.557 100.400 C 9.898 100.400,10.537 99.196,10.309 98.983 C 10.249 98.927,9.975 99.125,9.700 99.423 M6.908 106.028 C 6.876 106.452,7.019 106.800,7.225 106.800 C 7.680 106.800,7.727 105.725,7.283 105.451 C 7.109 105.344,6.940 105.603,6.908 106.028 M5.200 109.800 C 5.200 110.130,5.380 110.400,5.600 110.400 C 5.820 110.400,6.000 110.130,6.000 109.800 C 6.000 109.470,5.820 109.200,5.600 109.200 C 5.380 109.200,5.200 109.470,5.200 109.800 M4.400 112.600 C 4.400 112.930,4.580 113.200,4.800 113.200 C 5.020 113.200,5.200 112.930,5.200 112.600 C 5.200 112.270,5.020 112.000,4.800 112.000 C 4.580 112.000,4.400 112.270,4.400 112.600 M3.785 115.400 C 3.615 115.840,3.389 116.380,3.282 116.600 C 3.175 116.820,3.404 116.703,3.790 116.339 C 4.177 115.976,4.403 115.436,4.293 115.139 C 4.152 114.759,4.002 114.836,3.785 115.400 M363.059 118.306 C 364.018 118.920,363.721 120.692,362.082 124.139 C 361.135 126.132,360.414 128.230,360.432 128.939 C 360.449 129.633,360.554 129.975,360.665 129.700 C 360.776 129.425,361.045 129.200,361.262 129.200 C 361.829 129.200,362.809 128.142,362.514 127.848 C 362.378 127.711,362.461 127.600,362.698 127.600 C 362.935 127.600,364.135 126.618,365.365 125.417 C 367.493 123.339,368.139 122.282,367.145 122.500 C 366.895 122.555,366.548 122.095,366.374 121.478 C 366.060 120.365,363.770 118.013,363.000 118.013 C 362.780 118.012,362.807 118.144,363.059 118.306 M0.400 129.000 C 0.400 129.330,0.580 129.600,0.800 129.600 C 1.020 129.600,1.200 129.330,1.200 129.000 C 1.200 128.670,1.020 128.400,0.800 128.400 C 0.580 128.400,0.400 128.670,0.400 129.000 M358.000 131.600 C 357.560 132.040,357.200 132.724,357.200 133.120 C 357.200 133.516,356.975 134.077,356.700 134.367 C 356.307 134.781,356.393 134.778,357.100 134.351 C 357.595 134.052,358.000 133.615,358.000 133.379 C 358.000 133.144,358.360 132.564,358.800 132.092 C 360.161 130.631,359.423 130.177,358.000 131.600 M357.600 146.200 C 357.600 146.530,357.870 146.800,358.200 146.800 C 358.530 146.800,358.800 147.070,358.800 147.400 C 358.800 147.730,358.980 148.000,359.200 148.000 C 359.806 148.000,359.680 147.303,358.911 146.405 C 358.093 145.449,357.600 145.372,357.600 146.200 M358.000 157.000 C 358.000 157.550,358.180 158.000,358.400 158.000 C 358.620 158.000,358.800 157.550,358.800 157.000 C 358.800 156.450,358.620 156.000,358.400 156.000 C 358.180 156.000,358.000 156.450,358.000 157.000 M327.818 163.018 C 327.187 163.560,326.771 164.104,326.893 164.226 C 327.015 164.349,327.595 163.968,328.182 163.382 C 329.564 162.000,329.305 161.741,327.818 163.018 M0.400 163.600 C 0.400 164.040,0.580 164.400,0.800 164.400 C 1.020 164.400,1.200 164.040,1.200 163.600 C 1.200 163.160,1.020 162.800,0.800 162.800 C 0.580 162.800,0.400 163.160,0.400 163.600 M204.060 169.913 C 203.807 169.998,203.600 170.302,203.600 170.591 C 203.600 170.879,203.330 171.218,203.000 171.345 C 202.112 171.685,202.272 170.788,203.292 169.702 C 203.893 169.062,204.239 168.917,204.352 169.256 C 204.444 169.533,204.313 169.829,204.060 169.913 M2.800 174.600 C 2.800 174.930,2.980 175.200,3.200 175.200 C 3.420 175.200,3.600 174.930,3.600 174.600 C 3.600 174.270,3.420 174.000,3.200 174.000 C 2.980 174.000,2.800 174.270,2.800 174.600 M314.982 175.742 C 314.005 176.813,313.909 177.362,314.831 176.604 C 315.364 176.167,315.857 175.780,315.927 175.744 C 315.996 175.709,315.906 175.591,315.727 175.482 C 315.547 175.373,315.212 175.490,314.982 175.742 M311.802 179.198 C 311.403 179.639,311.207 180.000,311.367 180.000 C 311.788 180.000,312.928 178.795,312.712 178.579 C 312.611 178.478,312.202 178.756,311.802 179.198 M352.000 185.400 C 352.000 185.730,352.180 186.000,352.400 186.000 C 352.620 186.000,352.800 185.730,352.800 185.400 C 352.800 185.070,352.620 184.800,352.400 184.800 C 352.180 184.800,352.000 185.070,352.000 185.400 M6.960 187.374 C 6.960 187.910,7.104 188.259,7.280 188.151 C 7.456 188.042,7.600 187.603,7.600 187.176 C 7.600 186.749,7.456 186.400,7.280 186.400 C 7.104 186.400,6.960 186.838,6.960 187.374 M7.600 188.976 C 7.600 189.293,7.780 189.664,8.000 189.800 C 8.220 189.936,8.400 189.677,8.400 189.224 C 8.400 188.771,8.220 188.400,8.000 188.400 C 7.780 188.400,7.600 188.659,7.600 188.976 M9.108 193.032 C 9.209 193.559,9.451 193.892,9.646 193.772 C 10.183 193.440,10.069 192.512,9.462 192.279 C 9.078 192.132,8.977 192.346,9.108 193.032 M165.273 194.237 C 164.763 194.781,164.421 195.535,164.511 195.913 C 164.657 196.519,164.716 196.506,165.010 195.800 C 165.194 195.360,165.672 194.709,166.072 194.353 C 166.473 193.997,166.800 193.592,166.800 193.453 C 166.800 192.951,166.182 193.268,165.273 194.237 M176.500 196.377 C 176.005 196.790,175.600 197.236,175.600 197.368 C 175.600 197.766,177.170 196.655,177.380 196.109 C 177.629 195.460,177.583 195.474,176.500 196.377 M159.600 202.200 C 159.600 202.530,159.780 202.800,160.000 202.800 C 160.220 202.800,160.400 202.530,160.400 202.200 C 160.400 201.870,160.220 201.600,160.000 201.600 C 159.780 201.600,159.600 201.870,159.600 202.200 M342.900 204.998 C 342.625 205.311,342.400 205.754,342.400 205.983 C 342.400 206.738,342.992 206.412,343.462 205.397 C 343.969 204.305,343.687 204.105,342.900 204.998 M341.300 207.798 C 340.731 208.445,340.661 208.800,341.104 208.800 C 341.271 208.800,341.632 208.440,341.907 208.000 C 342.478 207.087,342.051 206.945,341.300 207.798 M338.679 212.417 C 338.305 212.852,338.001 213.522,338.001 213.905 C 338.002 214.355,338.292 214.126,338.823 213.255 C 339.762 211.714,339.682 211.245,338.679 212.417 M155.878 212.656 C 155.579 212.955,155.906 213.600,156.357 213.600 C 156.527 213.600,156.667 213.330,156.667 213.000 C 156.667 212.373,156.314 212.219,155.878 212.656 M277.300 213.398 C 276.557 214.242,276.694 214.473,277.600 213.907 C 278.040 213.632,278.400 213.271,278.400 213.104 C 278.400 212.627,277.849 212.775,277.300 213.398 M155.084 215.200 C 155.199 215.640,155.452 216.000,155.647 216.000 C 155.841 216.000,156.000 215.640,156.000 215.200 C 156.000 214.760,155.747 214.400,155.437 214.400 C 155.072 214.400,154.948 214.680,155.084 215.200 M22.887 216.791 C 23.391 217.597,24.000 217.874,24.000 217.296 C 24.000 217.129,23.636 216.765,23.191 216.487 C 22.441 216.019,22.419 216.041,22.887 216.791 M334.000 219.224 C 334.000 219.677,334.180 219.936,334.400 219.800 C 334.620 219.664,334.800 219.293,334.800 218.976 C 334.800 218.659,334.620 218.400,334.400 218.400 C 334.180 218.400,334.000 218.771,334.000 219.224 M25.081 219.759 C 25.477 220.286,25.944 220.630,26.120 220.523 C 26.296 220.416,26.043 219.984,25.559 219.564 C 24.374 218.537,24.214 218.602,25.081 219.759 M30.006 225.500 C 30.024 226.377,30.788 226.959,30.794 226.100 C 30.797 225.605,30.620 225.200,30.400 225.200 C 30.180 225.200,30.003 225.335,30.006 225.500 M151.200 226.800 C 151.200 227.240,151.020 227.600,150.800 227.600 C 150.580 227.600,150.400 227.960,150.400 228.400 C 150.400 228.840,150.599 229.200,150.843 229.200 C 151.086 229.200,151.187 228.943,151.067 228.629 C 150.946 228.315,151.107 227.843,151.424 227.580 C 152.082 227.034,152.198 226.000,151.600 226.000 C 151.380 226.000,151.200 226.360,151.200 226.800 M34.000 230.215 C 34.000 230.591,37.696 234.038,37.890 233.843 C 37.993 233.740,37.255 232.834,36.249 231.828 C 34.516 230.095,34.000 229.725,34.000 230.215 M260.100 230.598 C 259.357 231.442,259.494 231.673,260.400 231.107 C 260.840 230.832,261.200 230.471,261.200 230.304 C 261.200 229.827,260.649 229.975,260.100 230.598 M323.188 231.649 C 322.865 232.116,322.354 232.755,322.052 233.068 C 321.751 233.382,321.641 233.765,321.807 233.919 C 321.973 234.074,322.197 233.955,322.303 233.655 C 322.409 233.356,322.925 232.739,323.448 232.283 C 324.396 231.459,324.681 230.800,324.088 230.800 C 323.917 230.800,323.512 231.182,323.188 231.649 M254.923 235.204 C 253.621 235.728,252.549 237.511,253.169 238.121 C 253.511 238.456,253.619 238.463,253.529 238.144 C 253.458 237.892,253.833 237.307,254.361 236.844 C 254.890 236.380,255.170 236.000,254.985 236.000 C 254.799 236.000,254.996 235.736,255.424 235.413 C 256.305 234.746,256.184 234.696,254.923 235.204 M147.200 237.600 C 147.200 238.040,147.380 238.400,147.600 238.400 C 147.820 238.400,148.000 238.040,148.000 237.600 C 148.000 237.160,147.820 236.800,147.600 236.800 C 147.380 236.800,147.200 237.160,147.200 237.600 M249.953 240.300 C 249.927 240.465,249.924 240.729,249.948 240.886 C 249.971 241.043,249.768 241.087,249.495 240.983 C 249.223 240.880,248.477 241.247,247.838 241.798 C 247.199 242.349,246.828 242.800,247.015 242.800 C 247.202 242.800,246.751 243.295,246.014 243.900 C 242.429 246.844,226.422 262.982,226.756 263.316 C 226.982 263.542,228.451 262.390,230.544 260.343 C 232.423 258.504,234.949 256.100,236.155 255.000 C 237.362 253.900,238.361 252.775,238.375 252.500 C 238.389 252.225,238.565 252.000,238.768 252.000 C 238.970 252.000,239.721 251.379,240.437 250.619 C 241.153 249.860,241.888 249.331,242.070 249.443 C 242.251 249.555,242.400 249.277,242.400 248.824 C 242.400 248.344,242.661 248.000,243.024 248.000 C 243.367 248.000,243.536 247.820,243.400 247.600 C 243.264 247.380,243.413 247.200,243.730 247.200 C 244.048 247.200,244.629 246.705,245.021 246.100 C 246.009 244.575,247.225 243.568,247.713 243.870 C 247.939 244.010,248.018 243.952,247.888 243.743 C 247.596 243.269,247.969 242.727,248.966 242.178 C 249.952 241.635,251.065 240.000,250.449 240.000 C 250.202 240.000,249.979 240.135,249.953 240.300 M145.600 242.400 C 145.600 242.840,145.780 243.200,146.000 243.200 C 146.220 243.200,146.400 242.840,146.400 242.400 C 146.400 241.960,146.220 241.600,146.000 241.600 C 145.780 241.600,145.600 241.960,145.600 242.400 M142.400 251.400 C 142.400 251.730,142.580 252.000,142.800 252.000 C 143.020 252.000,143.200 251.730,143.200 251.400 C 143.200 251.070,143.020 250.800,142.800 250.800 C 142.580 250.800,142.400 251.070,142.400 251.400 M141.600 253.576 C 141.600 254.003,141.420 254.464,141.200 254.600 C 140.716 254.899,140.665 256.000,141.136 256.000 C 141.535 256.000,142.400 254.208,142.400 253.381 C 142.400 253.062,142.220 252.800,142.000 252.800 C 141.780 252.800,141.600 253.149,141.600 253.576 M138.000 264.800 C 138.000 265.240,138.142 265.600,138.315 265.600 C 138.488 265.600,138.657 265.240,138.690 264.800 C 138.723 264.360,138.581 264.000,138.375 264.000 C 138.169 264.000,138.000 264.360,138.000 264.800 M137.200 266.776 C 137.200 267.229,137.380 267.600,137.600 267.600 C 137.820 267.600,138.000 267.341,138.000 267.024 C 138.000 266.707,137.820 266.336,137.600 266.200 C 137.380 266.064,137.200 266.323,137.200 266.776 M234.060 269.451 C 233.543 270.002,233.217 270.550,233.336 270.669 C 233.552 270.885,235.600 269.030,235.600 268.618 C 235.600 268.147,234.956 268.495,234.060 269.451 M136.400 269.667 C 136.400 270.143,136.525 270.408,136.678 270.255 C 137.111 269.823,137.171 268.800,136.765 268.800 C 136.564 268.800,136.400 269.190,136.400 269.667 M142.901 281.800 C 142.905 282.680,142.987 282.993,143.083 282.495 C 143.179 281.998,143.175 281.278,143.075 280.895 C 142.975 280.513,142.896 280.920,142.901 281.800 M133.200 284.800 C 133.200 285.240,133.369 285.600,133.575 285.600 C 133.781 285.600,133.923 285.240,133.890 284.800 C 133.857 284.360,133.688 284.000,133.515 284.000 C 133.342 284.000,133.200 284.360,133.200 284.800 M134.000 287.400 C 134.000 287.950,134.180 288.400,134.400 288.400 C 134.620 288.400,134.800 287.950,134.800 287.400 C 134.800 286.850,134.620 286.400,134.400 286.400 C 134.180 286.400,134.000 286.850,134.000 287.400 M134.800 289.029 C 134.800 289.327,135.875 290.400,136.175 290.400 C 136.302 290.400,136.182 290.040,135.907 289.600 C 135.438 288.849,134.800 288.520,134.800 289.029 M150.000 290.000 C 150.000 290.220,150.371 290.400,150.824 290.400 C 151.277 290.400,151.536 290.220,151.400 290.000 C 151.264 289.780,150.893 289.600,150.576 289.600 C 150.259 289.600,150.000 289.780,150.000 290.000 M259.200 295.607 C 257.990 296.905,255.701 299.317,254.113 300.968 C 252.524 302.618,251.354 304.046,251.513 304.140 C 251.671 304.235,253.060 302.958,254.600 301.303 C 256.140 299.647,258.435 297.244,259.700 295.961 C 260.965 294.679,262.000 293.533,262.000 293.415 C 262.000 292.834,261.207 293.455,259.200 295.607 M162.800 296.000 C 162.315 296.314,162.372 296.389,163.100 296.394 C 163.595 296.397,164.000 296.220,164.000 296.000 C 164.000 295.499,163.576 295.499,162.800 296.000 M149.200 299.200 C 149.200 299.420,149.909 299.600,150.776 299.600 C 151.643 299.600,152.464 299.420,152.600 299.200 C 152.751 298.956,152.137 298.800,151.024 298.800 C 150.021 298.800,149.200 298.980,149.200 299.200 M249.745 305.271 C 245.797 309.058,238.800 316.047,238.800 316.204 C 238.800 316.724,239.578 316.036,244.354 311.300 C 247.183 308.495,249.880 305.935,250.348 305.612 C 251.184 305.034,251.491 304.375,250.900 304.426 C 250.735 304.440,250.215 304.821,249.745 305.271 M237.660 317.442 C 237.362 317.778,237.199 318.132,237.295 318.229 C 237.392 318.326,237.798 318.044,238.198 317.602 C 238.597 317.161,238.761 316.807,238.562 316.815 C 238.363 316.824,237.957 317.105,237.660 317.442 M235.289 319.858 C 234.567 320.596,234.129 321.200,234.314 321.200 C 234.737 321.200,237.002 318.860,236.771 318.662 C 236.677 318.582,236.010 319.120,235.289 319.858 M231.987 322.812 C 231.274 323.478,230.795 324.129,230.924 324.257 C 231.052 324.386,231.842 323.842,232.679 323.049 C 233.515 322.256,233.994 321.605,233.742 321.603 C 233.491 321.602,232.701 322.145,231.987 322.812 " stroke="none" fill="#fbb444" fill-rule="evenodd"></path><path id="path1" d="M94.500 42.676 C 94.885 42.776,95.515 42.776,95.900 42.676 C 96.285 42.575,95.970 42.493,95.200 42.493 C 94.430 42.493,94.115 42.575,94.500 42.676 M101.900 42.682 C 102.395 42.778,103.205 42.778,103.700 42.682 C 104.195 42.587,103.790 42.509,102.800 42.509 C 101.810 42.509,101.405 42.587,101.900 42.682 M256.307 42.690 C 257.026 42.779,258.106 42.777,258.707 42.686 C 259.308 42.595,258.720 42.522,257.400 42.524 C 256.080 42.526,255.588 42.601,256.307 42.690 M256.307 43.490 C 257.026 43.579,258.106 43.577,258.707 43.486 C 259.308 43.395,258.720 43.322,257.400 43.324 C 256.080 43.326,255.588 43.401,256.307 43.490 M218.800 50.800 C 218.315 51.114,218.372 51.189,219.100 51.194 C 219.595 51.197,220.000 51.020,220.000 50.800 C 220.000 50.299,219.576 50.299,218.800 50.800 M303.005 55.107 C 303.007 55.893,303.216 56.605,303.468 56.689 C 304.069 56.890,304.532 56.129,304.007 55.804 C 303.783 55.666,303.600 55.214,303.600 54.800 C 303.600 54.386,303.465 53.964,303.300 53.862 C 303.135 53.760,303.002 54.320,303.005 55.107 M208.860 55.842 C 208.131 56.666,208.600 57.057,209.381 56.276 C 209.721 55.936,210.000 55.554,210.000 55.429 C 210.000 55.009,209.406 55.224,208.860 55.842 M300.480 58.230 C 299.974 58.770,299.675 59.398,299.816 59.626 C 299.968 59.872,300.455 59.626,301.017 59.020 C 301.537 58.459,302.195 57.997,302.481 57.994 C 302.852 57.989,302.829 57.877,302.400 57.600 C 301.597 57.081,301.540 57.099,300.480 58.230 M150.400 58.000 C 150.400 58.220,150.659 58.400,150.976 58.400 C 151.293 58.400,151.664 58.220,151.800 58.000 C 151.936 57.780,151.677 57.600,151.224 57.600 C 150.771 57.600,150.400 57.780,150.400 58.000 M295.300 63.455 C 293.265 65.545,291.600 67.357,291.600 67.481 C 291.600 67.605,291.222 68.034,290.760 68.434 C 290.299 68.835,289.990 69.371,290.075 69.626 C 290.165 69.896,290.641 69.639,291.215 69.011 C 291.757 68.418,292.785 67.324,293.500 66.580 C 294.215 65.835,294.800 65.129,294.800 65.011 C 294.800 64.892,295.880 63.731,297.200 62.432 C 298.520 61.132,299.600 59.963,299.600 59.834 C 299.600 59.204,298.704 59.959,295.300 63.455 M201.062 60.300 C 200.960 60.465,201.309 60.626,201.838 60.658 C 202.367 60.689,202.800 60.554,202.800 60.358 C 202.800 59.925,201.323 59.876,201.062 60.300 M94.200 66.230 C 90.873 66.676,87.231 67.271,85.800 67.603 C 84.920 67.807,82.490 68.360,80.400 68.832 C 74.054 70.266,73.565 70.454,63.800 75.220 C 53.586 80.205,43.183 89.313,37.589 98.169 C 36.883 99.286,35.150 102.000,33.736 104.200 C 29.101 111.414,26.785 117.532,24.846 127.686 C 22.391 140.544,21.633 148.141,22.364 152.572 C 22.621 154.127,23.023 156.570,23.257 158.000 C 26.682 178.875,33.396 193.421,47.446 210.400 C 51.060 214.768,179.092 342.908,179.645 342.711 C 180.270 342.488,304.997 218.341,307.953 215.000 C 316.332 205.527,327.200 189.043,327.200 185.808 C 327.200 185.604,327.606 184.659,329.653 180.100 C 331.503 175.980,331.885 174.937,332.142 173.300 C 332.289 172.365,332.341 171.600,332.257 171.600 C 331.896 171.600,328.539 175.206,328.726 175.393 C 328.840 175.507,328.663 175.600,328.333 175.600 C 327.806 175.600,325.600 177.683,325.600 178.181 C 325.600 178.284,324.672 179.230,323.539 180.284 C 319.349 184.179,316.878 186.745,317.103 186.969 C 317.229 187.096,317.145 187.200,316.915 187.200 C 316.588 187.200,309.079 194.589,297.400 206.405 C 297.180 206.627,293.670 210.135,289.600 214.200 C 285.530 218.265,282.020 221.779,281.800 222.009 C 281.580 222.240,279.375 224.411,276.900 226.835 C 274.425 229.259,272.400 231.413,272.400 231.621 C 272.400 231.829,272.252 232.000,272.072 232.000 C 271.806 232.000,267.734 236.001,256.503 247.300 C 256.230 247.575,253.515 250.275,250.469 253.300 C 247.424 256.325,245.023 258.890,245.133 259.000 C 245.243 259.110,245.060 259.200,244.727 259.200 C 244.393 259.200,243.328 260.118,242.360 261.240 C 241.392 262.361,239.809 264.026,238.841 264.940 C 236.303 267.336,235.600 268.107,235.600 268.494 C 235.600 269.061,233.679 270.800,233.052 270.800 C 232.730 270.800,232.407 270.935,232.333 271.100 C 232.061 271.714,228.684 273.200,227.562 273.200 C 226.923 273.200,226.400 273.380,226.400 273.600 C 226.400 273.820,226.040 274.000,225.600 274.000 C 225.160 274.000,224.800 274.180,224.800 274.400 C 224.800 274.620,224.451 274.800,224.024 274.800 C 223.597 274.800,223.128 274.992,222.983 275.227 C 222.838 275.462,222.484 275.564,222.196 275.454 C 221.474 275.177,218.831 275.993,217.500 276.902 C 216.740 277.422,216.400 277.498,216.400 277.147 C 216.400 276.753,216.293 276.747,215.920 277.120 C 215.656 277.384,215.026 277.600,214.520 277.600 C 214.014 277.600,213.600 277.780,213.600 278.000 C 213.600 278.220,213.330 278.400,213.000 278.400 C 212.670 278.400,212.400 278.580,212.400 278.800 C 212.400 279.020,212.209 279.200,211.976 279.200 C 211.743 279.200,211.680 278.975,211.835 278.700 C 212.061 278.300,212.010 278.300,211.579 278.700 C 211.282 278.975,210.626 279.200,210.120 279.200 C 209.614 279.200,209.200 279.380,209.200 279.600 C 209.200 279.820,208.840 280.000,208.400 280.000 C 207.960 280.000,207.600 280.180,207.600 280.400 C 207.600 280.620,207.240 280.800,206.800 280.800 C 206.360 280.800,205.997 281.025,205.994 281.300 C 205.990 281.634,205.862 281.602,205.611 281.203 C 205.310 280.728,205.132 280.708,204.737 281.103 C 204.463 281.377,203.916 281.600,203.520 281.600 C 203.124 281.600,202.800 281.780,202.800 282.000 C 202.800 282.220,202.361 282.400,201.824 282.400 C 201.287 282.400,200.736 282.580,200.600 282.800 C 200.464 283.020,200.009 283.200,199.589 283.200 C 199.168 283.200,198.234 283.518,197.512 283.907 C 196.790 284.296,195.682 284.672,195.049 284.743 C 194.417 284.813,193.286 285.215,192.537 285.635 C 191.788 286.056,190.641 286.400,189.988 286.400 C 189.335 286.400,188.800 286.580,188.800 286.800 C 188.800 287.020,188.440 287.200,188.000 287.200 C 187.560 287.200,187.200 287.380,187.200 287.600 C 187.200 287.820,186.840 288.000,186.400 288.000 C 185.960 288.000,185.600 288.180,185.600 288.400 C 185.600 288.620,184.869 288.800,183.976 288.800 C 182.996 288.800,182.451 288.958,182.600 289.200 C 182.747 289.439,182.263 289.600,181.400 289.600 C 180.537 289.600,180.053 289.761,180.200 290.000 C 180.338 290.224,180.031 290.400,179.503 290.400 C 178.431 290.400,176.408 291.248,176.403 291.700 C 176.401 291.865,176.209 292.000,175.976 292.000 C 175.743 292.000,175.667 291.775,175.807 291.500 C 175.947 291.225,175.703 291.405,175.266 291.901 C 174.783 292.447,174.220 292.706,173.835 292.558 C 173.412 292.396,173.200 292.536,173.200 292.981 C 173.200 293.347,173.017 293.534,172.793 293.396 C 172.570 293.258,172.472 293.007,172.576 292.839 C 172.680 292.671,172.503 292.533,172.182 292.533 C 171.862 292.533,171.600 292.683,171.600 292.867 C 171.600 293.050,171.049 293.200,170.376 293.200 C 169.663 293.200,169.256 293.367,169.400 293.600 C 169.643 293.993,168.882 294.162,167.500 294.021 C 167.115 293.982,166.800 294.141,166.800 294.375 C 166.800 294.609,166.215 294.813,165.500 294.828 C 164.411 294.852,164.330 294.912,165.000 295.200 C 165.763 295.528,165.759 295.545,164.900 295.572 C 164.405 295.587,164.000 295.780,164.000 296.000 C 164.000 296.220,163.595 296.397,163.100 296.394 C 162.372 296.389,162.315 296.314,162.800 296.000 C 163.161 295.767,163.210 295.610,162.924 295.606 C 162.662 295.603,162.336 295.780,162.200 296.000 C 162.064 296.220,161.558 296.406,161.076 296.413 C 160.075 296.427,158.682 297.349,159.073 297.740 C 159.216 297.883,158.504 298.000,157.490 298.000 C 156.477 298.000,155.536 298.180,155.400 298.400 C 155.264 298.620,154.634 298.800,154.000 298.800 C 153.366 298.800,152.736 298.980,152.600 299.200 C 152.293 299.696,149.200 299.734,149.200 299.242 C 149.200 299.045,148.525 298.785,147.700 298.665 C 144.477 298.193,143.376 297.855,142.759 297.149 C 142.407 296.745,142.002 296.531,141.859 296.674 C 141.717 296.817,141.600 296.738,141.600 296.499 C 141.600 296.261,140.970 295.676,140.200 295.200 C 139.430 294.724,138.800 294.079,138.800 293.767 C 138.800 293.455,138.648 293.200,138.461 293.200 C 137.872 293.200,136.400 291.730,136.400 291.141 C 136.400 290.831,136.040 290.317,135.600 290.000 C 135.160 289.683,134.800 289.193,134.800 288.912 C 134.800 288.630,134.620 288.400,134.400 288.400 C 134.180 288.400,134.000 287.770,134.000 287.000 C 134.000 286.230,133.820 285.600,133.600 285.600 C 133.363 285.600,133.200 284.133,133.200 282.000 C 133.200 279.867,133.363 278.400,133.600 278.400 C 133.820 278.400,134.000 278.051,134.000 277.624 C 134.000 277.197,134.180 276.736,134.400 276.600 C 134.620 276.464,134.800 275.816,134.800 275.160 C 134.800 274.503,135.160 273.580,135.600 273.108 C 136.040 272.636,136.400 271.959,136.400 271.605 C 136.400 271.250,136.625 270.718,136.900 270.421 C 137.300 269.990,137.300 269.939,136.900 270.165 C 136.570 270.351,136.400 270.166,136.400 269.624 C 136.400 269.171,136.580 268.800,136.800 268.800 C 137.020 268.800,137.200 268.170,137.200 267.400 C 137.200 266.499,137.377 266.036,137.696 266.100 C 138.016 266.165,138.147 265.812,138.067 265.100 C 137.999 264.495,138.136 264.000,138.371 264.000 C 138.607 264.000,138.803 263.505,138.806 262.900 C 138.811 262.015,138.895 261.917,139.234 262.400 C 139.559 262.861,139.620 262.702,139.500 261.715 C 139.396 260.866,139.534 260.358,139.905 260.215 C 140.214 260.097,140.385 259.775,140.285 259.500 C 140.186 259.225,140.396 258.654,140.752 258.231 C 141.108 257.808,141.175 257.594,140.900 257.755 C 140.144 258.197,140.301 257.564,141.100 256.952 C 141.712 256.483,141.724 256.365,141.200 256.020 C 140.706 255.694,140.688 255.482,141.100 254.818 C 141.375 254.374,141.600 253.738,141.600 253.405 C 141.600 253.072,141.780 252.800,142.000 252.800 C 142.220 252.800,142.400 252.350,142.400 251.800 C 142.400 251.250,142.580 250.800,142.800 250.800 C 143.020 250.800,143.200 250.455,143.200 250.033 C 143.200 249.612,143.425 249.175,143.700 249.064 C 144.076 248.911,144.052 248.756,143.600 248.437 C 143.193 248.149,143.161 248.010,143.500 248.006 C 143.775 248.003,144.000 247.680,144.000 247.288 C 144.000 246.897,144.360 246.317,144.800 246.000 C 145.240 245.683,145.600 245.139,145.600 244.792 C 145.600 244.444,145.816 243.944,146.080 243.680 C 146.453 243.307,146.453 243.200,146.080 243.200 C 145.816 243.200,145.600 242.840,145.600 242.400 C 145.600 241.960,145.780 241.600,146.000 241.600 C 146.220 241.600,146.400 241.240,146.400 240.800 C 146.400 240.360,146.580 240.000,146.800 240.000 C 147.020 240.000,147.200 239.745,147.200 239.433 C 147.200 239.122,147.425 238.776,147.700 238.665 C 148.100 238.504,148.100 238.457,147.700 238.432 C 146.853 238.378,147.141 236.873,148.053 236.583 C 148.723 236.371,148.787 236.237,148.353 235.962 C 148.049 235.770,147.992 235.609,148.228 235.606 C 148.463 235.603,148.900 234.700,149.200 233.600 C 149.500 232.500,149.858 231.600,149.998 231.600 C 150.137 231.600,150.294 230.745,150.347 229.700 C 150.400 228.655,150.613 227.740,150.821 227.667 C 151.030 227.593,151.200 227.188,151.200 226.767 C 151.200 226.345,151.380 226.000,151.600 226.000 C 151.820 226.000,152.000 225.526,152.000 224.947 C 152.000 224.367,152.387 223.558,152.861 223.147 C 153.335 222.736,153.595 222.400,153.439 222.400 C 153.282 222.400,153.480 221.834,153.877 221.143 C 154.404 220.227,154.468 219.839,154.114 219.714 C 153.570 219.522,154.029 218.490,155.301 217.044 C 155.686 216.606,155.853 216.147,155.671 216.024 C 154.980 215.555,154.814 214.400,155.438 214.400 C 155.821 214.400,156.004 214.108,155.925 213.619 C 155.856 213.189,156.160 212.546,156.600 212.189 C 157.040 211.833,157.152 211.669,156.848 211.826 C 156.479 212.017,156.363 211.928,156.498 211.556 C 156.609 211.250,156.880 211.037,157.099 211.083 C 157.325 211.130,157.452 210.488,157.393 209.609 C 157.323 208.579,157.473 207.981,157.837 207.841 C 158.139 207.725,158.280 207.353,158.150 207.015 C 158.021 206.677,158.114 206.400,158.357 206.400 C 158.601 206.400,158.800 206.119,158.800 205.776 C 158.800 205.433,158.984 205.267,159.210 205.406 C 159.435 205.545,159.594 205.511,159.563 205.330 C 159.270 203.646,159.661 201.538,160.226 201.755 C 160.689 201.932,160.793 201.809,160.627 201.285 C 160.487 200.844,160.704 200.358,161.201 199.999 C 161.640 199.683,162.000 199.147,162.000 198.809 C 162.000 198.472,162.540 197.956,163.200 197.664 C 164.064 197.281,164.400 196.858,164.400 196.148 C 164.400 195.171,165.987 193.200,166.774 193.200 C 167.345 193.200,288.918 71.585,288.632 71.299 C 288.504 71.171,288.400 71.273,288.400 71.525 C 288.400 71.846,288.131 71.869,287.500 71.603 C 286.588 71.218,275.071 68.399,271.400 67.662 C 270.300 67.441,268.230 67.023,266.800 66.732 C 263.509 66.063,254.666 66.058,251.000 66.723 C 249.460 67.002,247.120 67.418,245.800 67.646 C 244.480 67.875,241.960 68.391,240.200 68.793 C 238.440 69.196,235.650 69.823,234.000 70.187 C 225.320 72.103,209.153 82.554,201.185 91.400 C 195.310 97.923,188.926 106.666,186.596 111.382 C 183.138 118.380,175.483 118.462,171.974 111.539 C 169.620 106.895,162.159 97.197,155.697 90.382 C 148.467 82.757,132.028 72.157,124.956 70.559 C 123.440 70.217,120.670 69.580,118.800 69.143 C 115.636 68.405,112.513 67.814,106.600 66.834 C 103.835 66.376,95.971 65.993,94.200 66.230 M187.060 72.800 C 186.403 74.118,186.536 74.321,187.454 73.403 C 187.782 73.075,187.940 72.627,187.805 72.408 C 187.662 72.177,187.821 72.110,188.179 72.247 C 188.521 72.378,188.800 72.286,188.800 72.043 C 188.800 71.136,187.638 71.642,187.060 72.800 M15.378 89.235 C 15.231 89.474,15.310 89.870,15.555 90.115 C 15.882 90.442,16.000 90.326,16.000 89.680 C 16.000 88.714,15.792 88.565,15.378 89.235 M11.035 96.940 C 11.210 97.400,11.105 97.815,10.758 98.034 C 10.341 98.299,10.329 98.389,10.713 98.394 C 11.444 98.403,11.795 97.234,11.229 96.673 C 10.861 96.308,10.817 96.369,11.035 96.940 M6.212 108.517 C 6.041 108.912,6.013 109.347,6.151 109.484 C 6.557 109.890,6.884 109.320,6.697 108.531 C 6.532 107.833,6.510 107.832,6.212 108.517 M353.600 137.400 C 353.317 137.741,353.176 138.109,353.286 138.219 C 353.396 138.329,353.717 138.141,354.000 137.800 C 354.283 137.459,354.424 137.091,354.314 136.981 C 354.204 136.871,353.883 137.059,353.600 137.400 M358.681 146.267 C 358.804 146.588,358.603 146.800,358.176 146.800 C 357.786 146.800,357.573 146.906,357.703 147.037 C 357.833 147.167,358.313 147.154,358.770 147.010 C 359.701 146.714,359.907 145.733,359.038 145.733 C 358.729 145.733,358.568 145.973,358.681 146.267 M356.811 167.787 C 356.543 168.109,356.417 168.604,356.531 168.887 C 356.657 169.200,356.749 169.119,356.768 168.676 C 356.786 168.278,356.950 168.045,357.133 168.159 C 357.317 168.272,357.467 168.103,357.467 167.782 C 357.467 167.059,357.415 167.059,356.811 167.787 M353.203 181.589 C 352.767 181.865,352.726 182.086,353.050 182.410 C 353.374 182.734,353.551 182.631,353.709 182.026 C 353.828 181.572,353.897 181.203,353.863 181.206 C 353.828 181.209,353.532 181.382,353.203 181.589 M6.000 185.000 C 6.000 185.330,6.180 185.600,6.400 185.600 C 6.620 185.600,6.800 185.330,6.800 185.000 C 6.800 184.670,6.620 184.400,6.400 184.400 C 6.180 184.400,6.000 184.670,6.000 185.000 M303.821 186.935 C 303.419 187.229,303.190 187.724,303.313 188.035 C 303.489 188.480,303.544 188.464,303.568 187.961 C 303.586 187.610,304.005 187.127,304.500 186.888 C 304.995 186.649,305.209 186.442,304.976 186.427 C 304.744 186.412,304.224 186.641,303.821 186.935 M22.508 215.972 C 22.540 216.397,22.709 216.656,22.883 216.549 C 23.327 216.275,23.280 215.200,22.825 215.200 C 22.619 215.200,22.476 215.548,22.508 215.972 M30.800 226.600 C 30.800 226.930,30.980 227.200,31.200 227.200 C 31.420 227.200,31.600 226.930,31.600 226.600 C 31.600 226.270,31.420 226.000,31.200 226.000 C 30.980 226.000,30.800 226.270,30.800 226.600 M262.500 228.198 C 261.757 229.042,261.894 229.273,262.800 228.707 C 263.240 228.432,263.600 228.071,263.600 227.904 C 263.600 227.427,263.049 227.575,262.500 228.198 M38.000 233.938 C 38.000 234.124,38.360 234.602,38.800 235.000 C 39.240 235.398,39.600 235.606,39.600 235.462 C 39.600 235.318,39.240 234.840,38.800 234.400 C 38.360 233.960,38.000 233.752,38.000 233.938 M320.400 234.557 C 320.400 234.937,320.232 235.144,320.028 235.017 C 319.823 234.891,319.542 234.970,319.404 235.193 C 319.266 235.417,319.439 235.600,319.789 235.600 C 320.460 235.600,321.074 234.541,320.649 234.116 C 320.512 233.979,320.400 234.177,320.400 234.557 M317.900 237.144 C 316.611 238.460,316.428 239.104,317.630 238.096 C 318.356 237.488,319.428 235.980,319.114 236.011 C 319.051 236.017,318.505 236.527,317.900 237.144 M278.219 276.608 C 277.374 277.382,276.790 278.124,276.922 278.255 C 277.054 278.387,277.395 278.241,277.681 277.930 C 280.525 274.830,280.742 274.297,278.219 276.608 M274.713 280.158 C 271.292 283.696,269.934 285.268,270.130 285.463 C 270.361 285.694,272.769 283.192,272.788 282.700 C 272.795 282.535,273.025 282.393,273.300 282.384 C 273.761 282.370,276.675 278.800,276.226 278.800 C 276.116 278.800,275.436 279.411,274.713 280.158 M266.844 288.014 C 265.439 289.339,264.378 290.511,264.487 290.621 C 264.788 290.921,266.000 290.368,266.000 289.930 C 266.000 289.479,268.713 286.846,268.942 287.075 C 269.028 287.161,269.194 286.865,269.312 286.416 C 269.585 285.370,269.794 285.235,266.844 288.014 M96.093 292.400 C 96.562 293.151,97.200 293.480,97.200 292.971 C 97.200 292.673,96.125 291.600,95.825 291.600 C 95.698 291.600,95.818 291.960,96.093 292.400 M99.600 295.769 C 99.600 296.224,101.635 298.098,101.872 297.861 C 102.095 297.638,101.615 297.086,100.298 296.051 C 99.914 295.749,99.600 295.622,99.600 295.769 M251.200 303.400 C 250.683 303.950,250.390 304.400,250.548 304.400 C 250.707 304.400,251.286 303.950,251.836 303.400 C 252.386 302.850,252.680 302.400,252.488 302.400 C 252.296 302.400,251.717 302.850,251.200 303.400 M108.079 304.418 C 108.749 305.088,109.376 305.557,109.473 305.460 C 109.702 305.232,107.670 303.200,107.213 303.200 C 107.020 303.200,107.410 303.748,108.079 304.418 M110.013 306.004 C 110.019 306.332,110.469 306.923,111.013 307.319 C 112.281 308.242,112.276 307.862,111.000 306.487 C 110.340 305.775,110.004 305.611,110.013 306.004 M112.263 308.304 C 112.165 308.467,112.326 308.823,112.621 309.096 C 112.916 309.369,113.238 309.459,113.337 309.296 C 113.435 309.133,113.274 308.777,112.979 308.504 C 112.684 308.231,112.362 308.141,112.263 308.304 M117.867 313.867 C 117.741 313.992,117.908 314.365,118.238 314.695 C 118.568 315.025,118.941 315.192,119.067 315.067 C 119.192 314.941,119.025 314.568,118.695 314.238 C 118.365 313.908,117.992 313.741,117.867 313.867 M121.251 317.498 C 122.262 318.785,122.703 319.164,122.928 318.939 C 123.165 318.702,121.423 316.800,120.969 316.800 C 120.822 316.800,120.949 317.114,121.251 317.498 M123.200 319.418 C 123.200 319.812,125.244 321.690,125.448 321.485 C 125.558 321.375,125.179 320.816,124.606 320.242 C 123.577 319.213,123.200 318.992,123.200 319.418 M129.687 325.991 C 129.965 326.436,130.329 326.800,130.496 326.800 C 131.074 326.800,130.797 326.191,129.991 325.687 C 129.241 325.219,129.219 325.241,129.687 325.991 M134.800 331.104 C 134.800 331.271,135.160 331.632,135.600 331.907 C 136.530 332.488,136.654 332.197,135.829 331.371 C 135.198 330.741,134.800 330.637,134.800 331.104 M137.200 333.382 C 137.200 333.749,139.158 335.509,139.352 335.315 C 139.462 335.205,139.121 334.684,138.594 334.158 C 137.685 333.249,137.200 332.979,137.200 333.382 M139.600 335.840 C 139.600 336.212,142.040 338.400,142.456 338.400 C 142.660 338.400,142.197 337.770,141.427 337.000 C 140.068 335.641,139.600 335.344,139.600 335.840 M143.333 339.398 C 143.333 339.729,143.584 340.000,143.890 340.000 C 144.197 340.000,144.344 340.168,144.217 340.372 C 144.091 340.577,144.170 340.858,144.393 340.996 C 145.104 341.435,144.831 340.152,144.067 339.460 C 143.441 338.894,143.333 338.885,143.333 339.398 M145.200 341.165 C 145.200 341.404,145.391 341.600,145.624 341.600 C 145.857 341.600,145.978 341.735,145.893 341.900 C 145.808 342.065,147.597 344.029,149.867 346.265 C 152.138 348.501,154.057 350.211,154.131 350.065 C 154.205 349.919,152.226 347.759,149.733 345.265 C 147.240 342.771,145.200 340.926,145.200 341.165 M156.800 353.013 C 156.800 353.385,159.210 355.600,159.614 355.600 C 159.826 355.600,160.000 355.881,160.000 356.224 C 160.000 356.567,160.165 356.745,160.366 356.621 C 160.567 356.497,160.823 356.621,160.934 356.898 C 161.046 357.174,161.151 357.207,161.168 356.971 C 161.186 356.735,160.297 355.700,159.193 354.671 C 157.265 352.873,156.800 352.551,156.800 353.013 M162.289 358.280 C 162.188 358.456,162.532 359.011,163.053 359.514 C 163.574 360.017,164.000 360.269,164.000 360.075 C 164.000 359.511,162.490 357.928,162.289 358.280 M165.200 361.504 C 165.200 361.671,165.560 362.032,166.000 362.307 C 166.930 362.888,167.054 362.597,166.229 361.771 C 165.598 361.141,165.200 361.037,165.200 361.504 M167.867 363.867 C 167.747 363.987,168.098 364.535,168.648 365.085 C 169.198 365.635,169.747 365.987,169.867 365.867 C 169.987 365.747,169.635 365.198,169.085 364.648 C 168.535 364.098,167.987 363.747,167.867 363.867 " stroke="none" fill="#fb6b43" fill-rule="evenodd"></path><path id="path2" d="M97.905 42.683 C 98.402 42.779,99.122 42.775,99.505 42.675 C 99.887 42.575,99.480 42.496,98.600 42.501 C 97.720 42.505,97.407 42.587,97.905 42.683 M91.082 43.051 C 90.944 43.189,89.609 43.302,88.116 43.302 C 86.622 43.302,85.625 43.384,85.900 43.485 C 86.982 43.879,86.313 44.213,84.742 44.063 C 83.494 43.944,82.992 44.070,82.710 44.575 C 82.442 45.053,82.194 45.127,81.839 44.833 C 81.266 44.357,77.200 44.728,77.200 45.256 C 77.200 45.445,76.660 45.600,76.000 45.600 C 75.303 45.600,74.800 45.811,74.800 46.103 C 74.800 46.455,74.247 46.562,72.951 46.459 C 71.934 46.378,70.989 46.467,70.851 46.656 C 70.377 47.306,68.810 48.000,67.818 48.000 C 67.271 48.000,66.183 48.360,65.400 48.800 C 64.617 49.240,63.701 49.600,63.364 49.600 C 63.028 49.600,62.864 49.780,63.000 50.000 C 63.148 50.239,62.653 50.400,61.771 50.400 C 60.841 50.400,60.054 50.672,59.647 51.133 C 59.291 51.535,58.145 52.115,57.100 52.420 C 56.055 52.725,55.200 53.082,55.200 53.213 C 55.200 53.344,54.578 53.695,53.818 53.993 C 53.058 54.291,52.529 54.685,52.642 54.868 C 52.755 55.050,52.477 55.200,52.024 55.200 C 51.571 55.200,51.200 55.380,51.200 55.600 C 51.200 55.820,50.733 56.000,50.163 56.000 C 49.462 56.000,49.057 56.259,48.916 56.800 C 48.768 57.367,48.370 57.600,47.553 57.600 C 46.919 57.600,46.400 57.780,46.400 58.000 C 46.400 58.220,46.142 58.400,45.827 58.400 C 45.512 58.400,45.138 58.765,44.997 59.211 C 44.855 59.656,44.528 59.979,44.270 59.927 C 43.383 59.748,42.000 60.825,42.000 61.694 C 42.000 62.348,41.887 62.447,41.539 62.099 C 40.961 61.521,39.600 62.164,39.600 63.014 C 39.600 63.336,39.359 63.600,39.064 63.600 C 38.769 63.600,37.793 64.320,36.895 65.200 C 35.997 66.080,35.061 66.800,34.813 66.800 C 34.239 66.800,32.400 68.626,32.400 69.195 C 32.400 69.432,31.815 70.215,31.100 70.934 C 30.385 71.654,29.350 72.816,28.800 73.517 C 28.250 74.219,27.516 74.794,27.170 74.796 C 26.352 74.801,24.800 76.458,24.800 77.326 C 24.800 77.697,24.648 78.000,24.461 78.000 C 23.830 78.000,22.400 79.490,22.400 80.147 C 22.400 80.506,22.119 80.800,21.776 80.800 C 21.433 80.800,21.264 80.980,21.400 81.200 C 21.536 81.420,21.377 81.600,21.047 81.600 C 20.717 81.600,20.319 81.808,20.162 82.062 C 19.994 82.333,20.051 82.416,20.301 82.261 C 20.579 82.089,20.568 82.333,20.267 82.969 C 19.961 83.618,19.711 83.784,19.511 83.470 C 19.337 83.197,19.210 83.461,19.206 84.100 C 19.203 84.705,19.020 85.200,18.800 85.200 C 18.580 85.200,18.400 85.470,18.400 85.800 C 18.400 86.130,18.220 86.400,18.000 86.400 C 17.780 86.400,17.600 86.670,17.600 87.000 C 17.600 87.330,17.420 87.600,17.200 87.600 C 16.980 87.600,16.797 87.915,16.794 88.300 C 16.789 88.898,16.731 88.913,16.400 88.400 C 16.106 87.945,16.011 88.114,16.006 89.100 C 16.003 89.815,15.865 90.379,15.700 90.353 C 14.816 90.213,14.400 90.484,14.400 91.200 C 14.400 91.640,14.220 92.000,14.000 92.000 C 13.780 92.000,13.597 92.405,13.594 92.900 C 13.589 93.628,13.514 93.685,13.200 93.200 C 12.898 92.732,12.811 92.843,12.806 93.700 C 12.803 94.305,12.609 94.800,12.375 94.800 C 12.141 94.800,11.989 95.115,12.037 95.500 C 12.153 96.425,11.326 98.400,10.822 98.400 C 10.604 98.400,10.533 98.681,10.665 99.026 C 10.812 99.407,10.573 99.884,10.053 100.248 C 9.584 100.577,9.200 101.159,9.200 101.543 C 9.200 102.419,8.301 104.393,7.900 104.397 C 7.735 104.399,7.600 104.940,7.600 105.600 C 7.600 106.260,7.420 106.800,7.200 106.800 C 6.980 106.800,6.800 107.430,6.800 108.200 C 6.800 108.970,6.620 109.600,6.400 109.600 C 6.180 109.600,6.000 110.050,6.000 110.600 C 6.000 111.150,5.820 111.600,5.600 111.600 C 5.380 111.600,5.200 111.949,5.200 112.376 C 5.200 112.803,5.020 113.264,4.800 113.400 C 4.580 113.536,4.400 114.329,4.400 115.162 C 4.400 116.339,4.199 116.775,3.500 117.112 C 3.005 117.351,2.825 117.558,3.100 117.573 C 3.689 117.605,3.787 118.800,3.200 118.800 C 2.980 118.800,2.800 119.351,2.800 120.024 C 2.800 120.737,2.633 121.144,2.400 121.000 C 2.167 120.856,2.000 121.263,2.000 121.976 C 2.000 122.649,1.820 123.200,1.600 123.200 C 1.380 123.200,1.200 123.560,1.200 124.000 C 1.200 124.440,1.380 124.800,1.600 124.800 C 1.820 124.800,2.000 125.160,2.000 125.600 C 2.000 126.040,1.820 126.400,1.600 126.400 C 1.380 126.400,1.200 127.221,1.200 128.224 C 1.200 129.227,1.047 129.952,0.859 129.836 C -0.078 129.257,-0.223 161.537,0.712 162.472 C 0.980 162.740,1.200 163.734,1.200 164.680 C 1.200 165.626,1.380 166.400,1.600 166.400 C 1.820 166.400,2.000 166.681,2.000 167.024 C 2.000 167.367,1.820 167.536,1.600 167.400 C 1.380 167.264,1.200 167.523,1.200 167.976 C 1.200 168.429,1.380 168.800,1.600 168.800 C 1.820 168.800,2.000 169.340,2.000 170.000 C 2.000 170.660,2.180 171.200,2.400 171.200 C 2.620 171.200,2.800 171.740,2.800 172.400 C 2.800 173.060,2.980 173.600,3.200 173.600 C 3.779 173.600,3.693 175.096,3.100 175.335 C 2.700 175.496,2.700 175.543,3.100 175.568 C 3.375 175.586,3.600 175.902,3.600 176.272 C 3.600 177.246,4.506 179.600,4.880 179.600 C 5.056 179.600,5.200 180.410,5.200 181.400 C 5.200 182.390,5.380 183.200,5.600 183.200 C 5.820 183.200,6.000 183.470,6.000 183.800 C 6.000 184.130,6.180 184.400,6.400 184.400 C 6.620 184.400,6.800 184.760,6.800 185.200 C 6.800 185.640,6.980 186.000,7.200 186.000 C 7.420 186.000,7.600 186.450,7.600 187.000 C 7.600 187.550,7.780 188.000,8.000 188.000 C 8.220 188.000,8.400 188.414,8.400 188.920 C 8.400 189.426,8.616 190.056,8.880 190.320 C 9.253 190.693,9.231 190.803,8.780 190.813 C 8.391 190.822,8.512 191.086,9.146 191.615 C 9.817 192.174,10.038 192.690,9.904 193.390 C 9.800 193.932,9.870 194.281,10.058 194.164 C 10.246 194.048,10.400 194.405,10.400 194.958 C 10.400 196.154,11.181 198.000,11.688 198.000 C 11.885 198.000,11.956 198.147,11.845 198.327 C 11.734 198.507,12.090 199.137,12.638 199.727 C 13.185 200.317,13.438 200.800,13.200 200.800 C 12.931 200.800,12.963 201.010,13.284 201.358 C 13.568 201.665,13.935 201.834,14.100 201.734 C 14.265 201.635,14.400 201.923,14.400 202.376 C 14.400 202.829,14.569 203.200,14.775 203.200 C 14.981 203.200,15.206 203.785,15.275 204.500 C 15.369 205.481,15.572 205.771,16.100 205.682 C 16.577 205.602,16.800 205.826,16.800 206.382 C 16.800 206.832,16.980 207.200,17.200 207.200 C 17.420 207.200,17.600 207.560,17.600 208.000 C 17.600 208.440,17.780 208.800,18.000 208.800 C 18.220 208.800,18.400 209.160,18.400 209.600 C 18.400 210.040,18.625 210.403,18.900 210.406 C 19.233 210.410,19.200 210.542,18.800 210.800 C 18.292 211.128,18.312 211.189,18.929 211.194 C 19.811 211.201,20.800 212.123,20.800 212.938 C 20.800 213.265,21.025 213.624,21.300 213.735 C 21.681 213.889,21.675 213.944,21.271 213.968 C 20.500 214.014,21.752 215.200,22.571 215.200 C 22.917 215.200,23.200 215.494,23.200 215.853 C 23.200 216.212,23.577 216.833,24.037 217.232 C 24.497 217.631,24.757 218.146,24.614 218.377 C 24.472 218.608,24.827 219.012,25.404 219.275 C 26.108 219.596,26.393 219.983,26.270 220.454 C 26.159 220.879,26.509 221.519,27.157 222.078 C 27.745 222.585,28.540 223.495,28.923 224.100 C 29.305 224.705,29.807 225.200,30.038 225.200 C 30.712 225.200,31.600 226.279,31.600 227.097 C 31.600 227.822,33.516 230.000,34.155 230.000 C 34.600 230.000,39.600 234.985,39.600 235.429 C 39.601 236.023,41.455 238.012,41.740 237.726 C 41.883 237.583,42.000 237.681,42.000 237.943 C 42.000 238.553,91.467 288.000,91.772 287.695 C 91.897 287.569,92.000 287.716,92.000 288.021 C 92.000 288.584,94.330 290.797,94.924 290.799 C 95.102 290.800,95.136 290.980,95.000 291.200 C 94.864 291.420,95.046 291.600,95.405 291.600 C 96.243 291.600,97.200 292.557,97.200 293.395 C 97.200 293.754,97.380 293.936,97.600 293.800 C 97.820 293.664,98.000 293.833,98.000 294.176 C 98.000 294.519,98.193 294.800,98.429 294.800 C 98.664 294.800,99.085 295.025,99.363 295.300 C 99.641 295.575,100.348 296.158,100.934 296.595 C 101.520 297.032,102.000 297.707,102.000 298.095 C 102.000 298.483,102.283 298.800,102.629 298.800 C 102.974 298.800,103.527 299.070,103.857 299.400 C 104.208 299.750,104.271 300.000,104.010 300.000 C 103.765 300.000,104.014 300.450,104.564 301.000 C 105.114 301.550,105.852 302.000,106.205 302.000 C 106.558 302.000,106.742 302.171,106.612 302.380 C 106.483 302.589,106.788 302.977,107.289 303.243 C 108.455 303.861,109.642 305.209,109.385 305.624 C 109.276 305.800,109.370 306.058,109.593 306.196 C 109.817 306.334,110.000 306.213,110.000 305.928 C 110.000 305.642,110.450 305.893,111.000 306.487 C 111.550 307.080,112.000 307.783,112.000 308.049 C 112.000 308.315,112.109 308.424,112.243 308.291 C 112.560 307.974,113.571 308.909,113.334 309.300 C 113.235 309.465,113.433 309.600,113.776 309.600 C 114.119 309.600,114.400 309.881,114.400 310.224 C 114.400 310.567,114.567 310.744,114.771 310.618 C 114.975 310.492,115.250 310.706,115.382 311.094 C 115.717 312.079,116.995 313.544,117.641 313.684 C 118.374 313.842,119.200 314.643,119.200 315.195 C 119.200 315.444,119.380 315.536,119.600 315.400 C 119.820 315.264,120.000 315.439,120.000 315.789 C 120.000 316.139,120.315 316.546,120.699 316.693 C 121.648 317.057,123.209 318.657,122.909 318.958 C 122.776 319.091,122.868 319.200,123.115 319.200 C 123.730 319.200,125.600 321.118,125.600 321.748 C 125.600 322.030,126.050 322.683,126.600 323.200 C 127.150 323.717,127.600 324.011,127.600 323.854 C 127.600 323.697,127.851 323.801,128.158 324.084 C 128.465 324.368,128.634 324.735,128.534 324.900 C 128.435 325.065,128.644 325.200,129.000 325.200 C 129.356 325.200,129.533 325.384,129.394 325.610 C 129.255 325.835,129.289 325.994,129.470 325.963 C 130.320 325.815,130.800 326.053,130.800 326.624 C 130.800 326.967,130.960 327.149,131.155 327.028 C 131.350 326.908,131.603 327.167,131.717 327.604 C 131.831 328.042,132.212 328.400,132.563 328.400 C 132.913 328.400,133.200 328.681,133.200 329.024 C 133.200 329.367,133.380 329.536,133.600 329.400 C 133.820 329.264,134.000 329.523,134.000 329.976 C 134.000 330.458,134.261 330.800,134.629 330.800 C 135.437 330.800,136.400 331.763,136.400 332.571 C 136.400 332.917,136.678 333.200,137.018 333.200 C 137.746 333.200,139.662 335.005,139.309 335.358 C 139.176 335.491,139.283 335.600,139.547 335.600 C 139.811 335.600,140.657 336.230,141.427 337.000 C 142.197 337.770,142.628 338.400,142.385 338.400 C 142.132 338.400,142.200 338.657,142.543 339.000 C 143.271 339.728,143.757 339.788,143.355 339.100 C 143.194 338.825,143.453 338.943,143.931 339.362 C 144.409 339.781,144.803 340.501,144.806 340.962 C 144.810 341.458,144.932 341.618,145.106 341.355 C 145.368 340.957,154.076 349.285,154.270 350.119 C 154.475 350.998,154.740 351.356,154.774 350.800 C 154.797 350.429,155.001 350.567,155.306 351.161 C 155.578 351.689,156.144 352.319,156.564 352.561 C 158.258 353.535,161.200 356.584,161.206 357.371 C 161.211 358.053,161.281 358.093,161.600 357.600 C 161.924 357.098,161.989 357.125,161.994 357.767 C 161.997 358.188,162.117 358.417,162.259 358.274 C 162.538 357.996,164.000 359.497,164.000 360.061 C 164.000 360.248,164.281 360.400,164.624 360.400 C 164.967 360.400,165.136 360.580,165.000 360.800 C 164.864 361.020,164.956 361.200,165.205 361.200 C 165.789 361.200,166.800 362.211,166.800 362.795 C 166.800 363.044,166.980 363.136,167.200 363.000 C 167.420 362.864,167.600 363.063,167.600 363.443 C 167.600 363.823,167.708 364.025,167.840 363.893 C 168.126 363.608,170.800 366.201,170.800 366.763 C 170.800 367.448,171.677 367.723,172.039 367.151 C 172.298 366.742,172.389 366.832,172.394 367.500 C 172.399 368.232,172.624 368.400,173.600 368.400 C 174.260 368.400,174.800 368.580,174.800 368.800 C 174.800 369.045,176.675 369.200,179.624 369.200 C 182.737 369.200,184.360 369.058,184.200 368.800 C 184.056 368.567,184.463 368.400,185.176 368.400 C 185.849 368.400,186.400 368.241,186.400 368.047 C 186.400 367.852,186.783 367.593,187.252 367.471 C 187.821 367.322,188.024 367.041,187.865 366.624 C 187.733 366.281,187.784 366.000,187.979 366.000 C 188.174 366.000,188.401 366.203,188.483 366.450 C 188.653 366.959,230.800 325.020,230.800 324.343 C 230.800 323.674,233.672 321.197,234.124 321.477 C 234.354 321.619,234.398 321.521,234.229 321.247 C 233.877 320.677,237.774 316.816,238.748 316.768 C 239.127 316.750,239.200 316.656,238.922 316.542 C 238.653 316.433,240.627 314.165,243.434 311.358 C 246.367 308.426,248.610 306.482,248.874 306.646 C 249.151 306.817,249.212 306.743,249.033 306.454 C 248.654 305.841,265.468 289.071,266.082 289.450 C 266.355 289.620,266.410 289.540,266.225 289.240 C 265.890 288.699,267.939 286.715,268.485 287.053 C 268.669 287.166,268.770 287.095,268.710 286.893 C 268.549 286.357,272.644 282.383,273.014 282.717 C 273.187 282.873,273.211 282.795,273.068 282.544 C 272.748 281.984,275.877 278.677,276.414 279.009 C 276.626 279.140,276.800 278.946,276.800 278.578 C 276.800 277.887,279.457 275.200,280.141 275.200 C 280.352 275.200,281.217 274.494,282.062 273.631 C 282.908 272.769,283.600 272.123,283.600 272.197 C 283.600 272.271,285.175 270.702,287.100 268.711 C 293.958 261.617,299.674 256.000,300.034 256.000 C 300.235 256.000,300.400 255.730,300.400 255.400 C 300.400 255.070,300.556 254.800,300.746 254.800 C 300.936 254.800,302.421 253.434,304.046 251.765 C 305.671 250.095,309.205 246.508,311.900 243.793 C 314.595 241.078,316.800 238.723,316.800 238.561 C 316.800 238.240,317.400 237.573,321.352 233.500 C 322.793 232.015,324.183 230.800,324.440 230.800 C 325.123 230.800,326.799 228.720,326.800 227.871 C 326.800 227.055,327.702 226.000,328.400 226.000 C 329.131 226.000,330.000 224.929,330.000 224.029 C 330.000 223.467,330.257 223.200,330.800 223.200 C 331.258 223.200,331.600 222.933,331.600 222.576 C 331.600 222.233,331.780 222.064,332.000 222.200 C 332.226 222.340,332.400 222.013,332.400 221.451 C 332.400 220.816,332.682 220.365,333.175 220.208 C 333.601 220.073,334.006 219.566,334.075 219.081 C 334.144 218.596,334.452 218.200,334.760 218.200 C 335.068 218.200,335.460 217.840,335.632 217.400 C 335.803 216.960,335.963 216.780,335.985 217.000 C 336.040 217.525,337.569 214.356,337.586 213.681 C 337.594 213.395,338.023 212.765,338.539 212.281 C 339.056 211.796,339.401 211.175,339.306 210.900 C 339.211 210.625,339.429 210.400,339.790 210.400 C 340.152 210.400,340.348 210.239,340.226 210.042 C 340.104 209.845,340.285 209.576,340.628 209.445 C 340.970 209.313,341.133 209.015,340.989 208.782 C 340.844 208.548,341.103 208.031,341.563 207.632 C 342.023 207.233,342.400 206.475,342.400 205.948 C 342.400 205.400,342.817 204.677,343.374 204.259 C 343.997 203.791,344.262 203.289,344.110 202.864 C 343.979 202.499,344.013 202.326,344.184 202.481 C 344.542 202.804,345.600 201.868,345.600 201.229 C 345.600 200.993,345.742 200.800,345.915 200.800 C 346.088 200.800,346.259 200.411,346.295 199.936 C 346.331 199.461,346.548 198.956,346.778 198.814 C 347.008 198.671,347.236 198.070,347.285 197.478 C 347.334 196.885,347.595 196.400,347.864 196.400 C 348.133 196.400,348.481 196.192,348.638 195.938 C 348.815 195.652,348.748 195.585,348.462 195.762 C 347.475 196.372,348.045 194.346,349.200 193.137 C 350.045 192.253,350.400 191.485,350.400 190.541 C 350.400 189.803,350.580 189.200,350.800 189.200 C 351.020 189.200,351.200 188.855,351.200 188.433 C 351.200 188.012,351.408 187.597,351.663 187.512 C 351.918 187.427,352.109 186.741,352.087 185.988 C 352.066 185.234,352.229 184.506,352.449 184.370 C 352.670 184.233,352.866 183.558,352.886 182.869 C 352.910 182.021,353.161 181.539,353.661 181.381 C 354.233 181.199,354.400 180.746,354.400 179.373 C 354.400 178.337,354.585 177.600,354.845 177.600 C 355.113 177.600,355.220 177.120,355.115 176.400 C 354.991 175.555,355.104 175.200,355.498 175.200 C 355.833 175.200,356.028 174.839,355.984 174.300 C 355.944 173.805,355.950 173.220,355.998 173.000 C 356.046 172.780,356.052 172.105,356.012 171.500 C 355.972 170.895,356.134 170.400,356.371 170.400 C 356.613 170.400,356.758 169.826,356.702 169.100 C 356.646 168.385,356.780 167.830,357.000 167.867 C 357.220 167.903,357.425 167.453,357.455 166.867 C 357.486 166.280,357.629 165.035,357.774 164.100 C 357.941 163.017,357.885 162.400,357.618 162.400 C 357.388 162.400,357.200 162.130,357.200 161.800 C 357.200 161.470,357.380 161.200,357.600 161.200 C 357.831 161.200,358.000 159.933,358.000 158.200 C 358.000 156.467,358.169 155.200,358.400 155.200 C 358.640 155.200,358.800 153.600,358.800 151.200 C 358.800 148.016,358.684 147.200,358.233 147.200 C 357.922 147.200,357.602 147.007,357.523 146.770 C 357.121 145.563,332.449 171.197,332.163 173.121 C 331.894 174.921,331.554 175.866,329.653 180.100 C 327.606 184.659,327.200 185.604,327.200 185.808 C 327.200 189.043,316.332 205.527,307.953 215.000 C 304.997 218.341,180.270 342.488,179.645 342.711 C 179.092 342.908,51.060 214.768,47.446 210.400 C 33.396 193.421,26.682 178.875,23.257 158.000 C 23.023 156.570,22.621 154.127,22.364 152.572 C 21.633 148.141,22.391 140.544,24.846 127.686 C 26.785 117.532,29.101 111.414,33.736 104.200 C 35.150 102.000,36.883 99.286,37.589 98.169 C 43.183 89.313,53.586 80.205,63.800 75.220 C 73.565 70.454,74.054 70.266,80.400 68.832 C 82.490 68.360,84.920 67.809,85.800 67.608 C 92.338 66.113,100.241 65.786,106.200 66.765 C 112.309 67.768,115.418 68.355,118.800 69.143 C 120.670 69.580,123.440 70.217,124.956 70.559 C 132.028 72.157,148.467 82.757,155.697 90.382 C 162.159 97.197,169.620 106.895,171.974 111.539 C 175.483 118.462,183.138 118.380,186.596 111.382 C 188.926 106.666,195.310 97.923,201.185 91.400 C 209.153 82.554,225.320 72.103,234.000 70.187 C 235.650 69.823,238.440 69.196,240.200 68.793 C 241.960 68.391,244.480 67.875,245.800 67.646 C 247.120 67.418,249.460 67.002,251.000 66.723 C 254.666 66.058,263.509 66.063,266.800 66.732 C 268.230 67.023,270.300 67.441,271.400 67.662 C 275.071 68.399,286.588 71.218,287.500 71.603 C 288.131 71.869,288.400 71.846,288.400 71.525 C 288.400 71.273,288.511 71.178,288.648 71.314 C 289.029 71.695,290.000 70.548,290.000 69.717 C 290.000 69.310,290.360 68.717,290.800 68.400 C 291.240 68.083,291.600 67.692,291.600 67.531 C 291.600 67.371,294.220 64.604,297.423 61.384 C 303.368 55.406,304.214 54.036,302.200 53.658 C 301.760 53.575,301.310 53.393,301.200 53.254 C 300.739 52.669,299.141 52.000,298.205 52.000 C 297.652 52.000,297.200 51.820,297.200 51.600 C 297.200 51.380,296.737 51.200,296.171 51.200 C 295.606 51.200,294.864 50.921,294.523 50.580 C 294.182 50.240,293.385 49.857,292.752 49.730 C 292.118 49.604,291.600 49.343,291.600 49.150 C 291.600 48.958,291.330 48.800,291.000 48.800 C 290.670 48.800,290.400 48.620,290.400 48.400 C 290.400 48.180,289.947 48.000,289.394 48.000 C 288.217 48.000,285.200 47.114,285.200 46.768 C 285.200 46.638,284.435 46.501,283.500 46.465 C 282.565 46.428,281.740 46.219,281.667 45.999 C 281.593 45.780,281.023 45.600,280.400 45.600 C 279.777 45.600,279.207 45.445,279.133 45.255 C 278.927 44.722,275.200 44.268,275.200 44.775 C 275.200 45.009,275.020 45.200,274.800 45.200 C 274.580 45.200,274.400 44.915,274.400 44.566 C 274.400 44.065,274.042 43.960,272.700 44.066 C 271.465 44.163,271.029 44.058,271.107 43.680 C 271.183 43.309,270.668 43.166,269.307 43.182 C 268.258 43.194,265.915 43.091,264.100 42.954 C 261.785 42.779,260.800 42.839,260.800 43.153 C 260.800 43.753,253.750 43.766,253.379 43.166 C 253.203 42.881,252.126 42.815,250.255 42.973 C 248.685 43.105,246.812 43.205,246.092 43.194 C 245.324 43.182,244.696 43.405,244.570 43.735 C 244.412 44.145,243.875 44.243,242.577 44.096 C 241.600 43.986,240.800 44.057,240.800 44.254 C 240.800 44.451,239.680 44.638,238.312 44.670 C 236.920 44.702,235.760 44.919,235.679 45.164 C 235.599 45.404,234.998 45.600,234.343 45.600 C 233.651 45.600,233.256 45.768,233.400 46.000 C 233.544 46.233,233.137 46.400,232.424 46.400 C 231.751 46.400,231.200 46.580,231.200 46.800 C 231.200 47.020,231.009 47.200,230.776 47.200 C 230.543 47.200,230.464 47.020,230.600 46.800 C 230.736 46.580,230.567 46.400,230.224 46.400 C 229.881 46.400,229.600 46.580,229.600 46.800 C 229.600 47.020,229.240 47.200,228.800 47.200 C 228.360 47.200,228.000 47.380,228.000 47.600 C 228.000 47.820,227.280 48.000,226.400 48.000 C 225.520 48.000,224.800 48.191,224.800 48.424 C 224.800 48.657,224.635 48.745,224.432 48.620 C 224.230 48.495,223.793 48.664,223.461 48.996 C 223.129 49.328,222.574 49.600,222.229 49.600 C 221.883 49.600,221.600 49.791,221.600 50.024 C 221.600 50.257,221.435 50.345,221.232 50.220 C 221.030 50.095,220.593 50.264,220.261 50.596 C 219.929 50.928,219.205 51.200,218.652 51.200 C 218.099 51.200,217.536 51.380,217.400 51.600 C 217.264 51.820,216.623 52.000,215.976 52.000 C 215.329 52.000,214.800 52.180,214.800 52.400 C 214.800 52.620,214.530 52.800,214.200 52.800 C 213.870 52.800,213.600 52.980,213.600 53.200 C 213.600 53.420,213.322 53.600,212.983 53.600 C 212.315 53.600,211.778 53.978,209.923 55.756 C 208.996 56.645,208.641 56.790,208.389 56.382 C 208.140 55.979,207.774 56.158,206.870 57.125 C 206.215 57.826,205.391 58.400,205.040 58.400 C 204.688 58.400,204.400 58.580,204.400 58.800 C 204.400 59.020,204.040 59.200,203.600 59.200 C 203.053 59.200,202.800 59.467,202.800 60.043 C 202.800 60.628,202.616 60.815,202.200 60.655 C 201.377 60.340,200.400 60.767,200.400 61.443 C 200.400 61.749,200.265 61.979,200.100 61.953 C 199.287 61.824,198.875 62.071,198.684 62.800 C 198.554 63.298,198.138 63.600,197.584 63.600 C 196.571 63.600,195.086 65.091,195.474 65.720 C 195.633 65.977,195.473 66.037,195.054 65.876 C 194.334 65.600,192.000 67.490,192.000 68.348 C 192.000 69.024,184.514 76.400,183.829 76.400 C 183.201 76.400,182.676 77.045,182.533 77.993 C 182.484 78.319,182.254 78.649,182.022 78.726 C 181.790 78.803,181.600 79.122,181.600 79.433 C 181.600 79.745,181.240 80.000,180.800 80.000 C 180.208 80.000,180.000 80.267,180.000 81.024 C 180.000 81.604,179.827 81.940,179.600 81.800 C 179.380 81.664,179.200 81.743,179.200 81.976 C 179.200 82.602,178.034 82.491,177.343 81.800 C 176.881 81.338,176.864 81.199,177.271 81.194 C 177.562 81.190,177.170 80.654,176.400 80.002 C 173.895 77.883,173.556 77.474,174.049 77.170 C 174.339 76.991,174.183 76.785,173.623 76.607 C 173.137 76.453,172.829 76.237,172.939 76.128 C 173.240 75.826,164.888 67.600,164.281 67.600 C 163.990 67.600,163.135 66.896,162.381 66.035 C 161.627 65.175,160.872 64.555,160.705 64.659 C 160.537 64.762,160.400 64.537,160.400 64.157 C 160.400 63.777,160.281 63.586,160.136 63.731 C 159.991 63.876,159.632 63.653,159.339 63.234 C 158.999 62.749,158.515 62.549,158.003 62.683 C 157.386 62.845,157.200 62.697,157.200 62.047 C 157.200 61.581,156.958 61.200,156.662 61.200 C 156.366 61.200,155.798 60.840,155.400 60.400 C 155.002 59.960,154.456 59.600,154.187 59.600 C 153.918 59.600,153.474 59.330,153.200 59.000 C 152.926 58.670,152.184 58.400,151.551 58.400 C 150.667 58.400,150.400 58.215,150.400 57.600 C 150.400 56.884,149.758 56.573,148.670 56.763 C 148.488 56.794,147.831 56.276,147.209 55.610 C 146.588 54.945,145.791 54.400,145.440 54.400 C 145.088 54.400,144.800 54.220,144.800 54.000 C 144.800 53.780,144.440 53.600,144.000 53.600 C 143.560 53.600,143.200 53.420,143.200 53.200 C 143.200 52.980,142.840 52.800,142.400 52.800 C 141.960 52.800,141.600 52.664,141.600 52.498 C 141.600 52.143,138.900 51.146,137.937 51.145 C 137.572 51.145,136.959 50.797,136.575 50.372 C 136.191 49.948,135.454 49.600,134.938 49.600 C 134.422 49.600,134.000 49.464,134.000 49.297 C 134.000 48.935,131.138 48.000,130.030 48.000 C 129.599 48.000,129.136 47.820,129.000 47.600 C 128.864 47.380,128.328 47.200,127.810 47.200 C 127.291 47.200,126.807 47.023,126.733 46.806 C 126.660 46.590,125.745 46.381,124.700 46.342 C 123.655 46.302,122.799 46.164,122.797 46.035 C 122.795 45.906,122.345 45.592,121.796 45.337 C 121.248 45.083,120.900 45.038,121.023 45.237 C 121.146 45.437,121.057 45.600,120.824 45.600 C 120.591 45.600,120.400 45.422,120.400 45.204 C 120.400 44.987,119.995 44.832,119.500 44.860 C 119.005 44.888,118.095 44.706,117.477 44.456 C 116.860 44.207,116.458 44.169,116.584 44.374 C 116.710 44.578,116.629 44.859,116.404 44.998 C 116.179 45.137,115.882 44.957,115.744 44.598 C 115.554 44.104,115.046 43.970,113.647 44.043 C 112.362 44.110,111.832 43.991,111.906 43.651 C 111.977 43.324,111.447 43.167,110.306 43.177 C 109.368 43.186,106.845 43.083,104.700 42.948 C 101.944 42.776,100.800 42.836,100.800 43.152 C 100.800 43.428,99.956 43.600,98.600 43.600 C 97.390 43.600,96.400 43.420,96.400 43.200 C 96.400 42.769,91.502 42.631,91.082 43.051 M154.893 245.200 C 154.618 245.640,154.498 246.000,154.625 246.000 C 154.925 246.000,156.000 244.927,156.000 244.629 C 156.000 244.120,155.362 244.449,154.893 245.200 " stroke="none" fill="#ab3b2c" fill-rule="evenodd"></path><path id="path3" d="M342.808 32.018 C 341.602 32.668,340.427 33.200,340.196 33.200 C 339.965 33.200,339.517 33.560,339.200 34.000 C 338.883 34.440,338.427 34.800,338.187 34.800 C 337.491 34.800,332.400 39.877,332.400 40.572 C 332.400 40.917,332.160 41.200,331.867 41.200 C 331.274 41.200,323.406 48.885,323.051 49.812 C 322.927 50.135,322.637 50.400,322.407 50.400 C 321.904 50.400,316.800 55.491,316.800 55.993 C 316.800 56.187,317.160 56.460,317.600 56.600 C 318.040 56.740,318.400 57.028,318.400 57.240 C 318.400 57.771,321.071 60.400,321.610 60.400 C 321.851 60.400,321.944 60.567,321.818 60.771 C 321.692 60.975,321.951 61.257,322.394 61.398 C 322.837 61.539,323.200 61.830,323.200 62.046 C 323.200 62.262,324.081 63.319,325.157 64.395 C 326.234 65.472,327.014 66.453,326.890 66.576 C 326.767 66.699,326.977 66.800,327.357 66.800 C 327.737 66.800,327.949 66.960,327.828 67.155 C 327.708 67.350,327.967 67.603,328.404 67.717 C 328.842 67.831,329.200 68.223,329.200 68.586 C 329.200 68.950,329.380 69.136,329.600 69.000 C 329.820 68.864,330.000 68.948,330.000 69.187 C 330.000 69.426,330.810 70.431,331.800 71.421 C 332.790 72.411,333.600 73.133,333.600 73.026 C 333.600 72.807,340.278 79.537,346.000 85.524 C 348.090 87.710,349.935 89.421,350.100 89.326 C 350.265 89.231,350.400 89.433,350.400 89.776 C 350.400 90.119,350.570 90.400,350.778 90.400 C 350.986 90.400,353.011 92.295,355.278 94.610 C 367.934 107.537,375.056 114.400,375.817 114.400 C 376.144 114.400,377.914 112.915,379.750 111.100 C 381.586 109.285,384.418 106.518,386.044 104.951 C 390.767 100.399,395.600 95.198,395.600 94.666 C 395.600 94.397,395.960 93.917,396.400 93.600 C 396.840 93.283,397.200 92.722,397.200 92.354 C 397.200 91.987,397.467 91.583,397.793 91.458 C 398.161 91.317,398.287 90.971,398.125 90.550 C 397.974 90.154,398.026 89.969,398.251 90.108 C 398.972 90.554,399.900 89.666,399.200 89.200 C 398.667 88.844,398.667 88.757,399.200 88.414 C 400.011 87.893,400.106 71.168,399.300 70.900 C 399.025 70.808,398.800 70.388,398.800 69.967 C 398.800 69.545,398.620 69.200,398.400 69.200 C 398.180 69.200,398.000 68.900,398.000 68.533 C 398.000 68.167,397.889 67.978,397.752 68.114 C 397.397 68.469,396.400 67.374,396.400 66.629 C 396.400 66.267,396.061 66.000,395.600 66.000 C 395.160 66.000,394.800 65.749,394.800 65.442 C 394.800 65.136,394.284 64.332,393.653 63.656 C 393.022 62.981,392.602 62.332,392.719 62.214 C 392.837 62.096,392.623 62.000,392.243 62.000 C 391.863 62.000,391.657 61.832,391.784 61.626 C 391.911 61.420,391.383 60.770,390.611 60.182 C 389.839 59.593,389.307 58.951,389.428 58.755 C 389.548 58.560,389.356 58.400,389.000 58.400 C 388.644 58.400,388.464 58.220,388.600 58.000 C 388.736 57.780,388.556 57.600,388.200 57.600 C 387.844 57.600,387.664 57.420,387.800 57.200 C 387.936 56.980,387.737 56.800,387.357 56.800 C 386.977 56.800,386.763 56.704,386.880 56.587 C 387.117 56.349,374.317 43.261,374.000 43.417 C 373.666 43.582,372.830 42.503,373.091 42.243 C 373.224 42.109,373.003 42.000,372.600 42.000 C 372.197 42.000,371.977 41.890,372.112 41.755 C 372.454 41.413,365.656 34.800,364.963 34.800 C 364.654 34.800,364.400 34.620,364.400 34.400 C 364.400 34.180,364.029 34.000,363.576 34.000 C 363.123 34.000,362.864 33.820,363.000 33.600 C 363.136 33.380,362.967 33.200,362.624 33.200 C 362.281 33.200,362.000 33.020,362.000 32.800 C 362.000 32.580,361.640 32.400,361.200 32.400 C 360.760 32.400,360.400 32.220,360.400 32.000 C 360.400 31.780,360.051 31.600,359.624 31.600 C 359.197 31.600,358.752 31.445,358.635 31.256 C 357.978 30.194,345.036 30.817,342.808 32.018 M358.101 159.400 C 358.105 160.280,358.187 160.593,358.283 160.095 C 358.379 159.598,358.375 158.878,358.275 158.495 C 358.175 158.113,358.096 158.520,358.101 159.400 M154.900 245.798 C 154.625 246.111,154.400 246.813,154.400 247.360 C 154.400 247.906,154.220 248.464,154.000 248.600 C 153.780 248.736,153.600 249.557,153.600 250.424 C 153.600 251.291,153.420 252.000,153.200 252.000 C 152.980 252.000,152.800 252.360,152.800 252.800 C 152.800 253.240,152.620 253.600,152.400 253.600 C 152.180 253.600,152.000 253.960,152.000 254.400 C 152.000 254.840,151.820 255.200,151.600 255.200 C 151.380 255.200,151.200 255.549,151.200 255.976 C 151.200 256.403,151.020 256.864,150.800 257.000 C 150.580 257.136,150.400 257.427,150.400 257.647 C 150.400 257.867,150.580 257.936,150.800 257.800 C 151.020 257.664,151.200 257.743,151.200 257.976 C 151.200 258.209,151.020 258.400,150.800 258.400 C 150.580 258.400,150.400 258.760,150.400 259.200 C 150.400 259.640,150.220 260.000,150.000 260.000 C 149.780 260.000,149.600 260.371,149.600 260.824 C 149.600 261.277,149.420 261.536,149.200 261.400 C 148.969 261.257,148.800 261.636,148.800 262.296 C 148.800 262.925,148.584 263.656,148.320 263.920 C 148.056 264.184,147.968 264.400,148.125 264.400 C 148.282 264.400,148.145 265.037,147.820 265.815 C 147.494 266.593,147.402 267.122,147.614 266.991 C 147.826 266.860,148.000 266.924,148.000 267.134 C 148.000 267.343,147.711 267.625,147.358 267.761 C 146.992 267.901,146.815 268.263,146.946 268.603 C 147.072 268.932,147.001 269.200,146.787 269.200 C 146.574 269.200,146.400 269.549,146.400 269.976 C 146.400 270.403,146.220 270.864,146.000 271.000 C 145.780 271.136,145.600 271.597,145.600 272.024 C 145.600 272.451,145.458 272.800,145.285 272.800 C 145.112 272.800,144.926 273.378,144.872 274.084 C 144.818 274.791,144.645 275.466,144.487 275.584 C 143.821 276.085,143.232 277.572,143.608 277.805 C 143.824 277.938,144.000 278.227,144.000 278.447 C 144.000 278.667,143.820 278.736,143.600 278.600 C 143.352 278.447,143.177 279.310,143.140 280.876 C 143.058 284.285,143.201 285.775,143.625 285.930 C 144.280 286.170,146.247 288.193,146.512 288.900 C 146.657 289.285,147.006 289.614,147.287 289.631 C 148.231 289.687,149.271 289.938,149.497 290.164 C 149.620 290.287,149.931 290.100,150.188 289.749 C 150.614 289.166,150.709 289.166,151.290 289.748 C 151.958 290.415,153.829 290.075,155.177 289.042 C 155.612 288.708,155.682 288.720,155.460 289.089 C 155.207 289.510,156.177 289.120,159.295 287.550 C 159.677 287.357,160.341 287.200,160.771 287.200 C 161.201 287.200,161.664 287.020,161.800 286.800 C 161.936 286.580,162.577 286.400,163.224 286.400 C 163.871 286.400,164.400 286.220,164.400 286.000 C 164.400 285.780,164.850 285.600,165.400 285.600 C 165.950 285.600,166.400 285.420,166.400 285.200 C 166.400 284.980,166.814 284.800,167.320 284.800 C 167.826 284.800,168.425 284.615,168.651 284.389 C 168.877 284.163,169.615 283.938,170.292 283.889 C 170.968 283.840,171.439 283.665,171.337 283.500 C 171.236 283.335,171.613 283.200,172.176 283.200 C 172.739 283.200,173.200 283.020,173.200 282.800 C 173.200 282.580,173.729 282.400,174.376 282.400 C 175.023 282.400,175.664 282.220,175.800 282.000 C 175.936 281.780,176.397 281.600,176.824 281.600 C 177.251 281.600,177.600 281.420,177.600 281.200 C 177.600 280.980,178.219 280.800,178.976 280.800 C 179.733 280.800,180.464 280.620,180.600 280.400 C 180.736 280.180,181.197 280.000,181.624 280.000 C 182.051 280.000,182.400 279.820,182.400 279.600 C 182.400 279.380,182.760 279.200,183.200 279.200 C 183.640 279.200,184.000 279.020,184.000 278.800 C 184.000 278.580,184.720 278.400,185.600 278.400 C 186.480 278.400,187.200 278.241,187.200 278.047 C 187.200 277.852,187.605 277.570,188.100 277.420 C 188.693 277.239,188.819 277.072,188.470 276.930 C 188.178 276.810,180.877 269.623,172.245 260.957 C 156.801 245.452,155.899 244.664,154.900 245.798 " stroke="none" fill="#2a5f87" fill-rule="evenodd"></path><path id="path4" d="M305.131 68.301 C 303.003 70.445,298.953 74.472,296.131 77.248 C 293.309 80.025,289.319 84.022,287.264 86.131 C 285.209 88.239,282.105 91.278,280.364 92.882 C 278.624 94.487,277.200 96.055,277.200 96.367 C 277.200 96.678,277.093 96.827,276.963 96.696 C 276.832 96.566,275.977 97.277,275.063 98.277 C 274.148 99.277,271.525 101.919,269.234 104.147 C 259.564 113.555,251.600 121.777,251.600 122.354 C 251.600 123.177,252.421 122.811,253.965 121.300 C 254.808 120.475,255.746 119.582,256.049 119.315 C 256.352 119.048,259.840 115.590,263.800 111.630 C 267.760 107.670,276.805 98.674,283.900 91.638 C 292.509 83.101,296.800 78.572,296.800 78.023 C 296.800 77.478,297.059 77.200,297.569 77.200 C 297.993 77.200,299.613 75.941,301.169 74.403 C 303.880 71.724,304.497 70.800,303.576 70.800 C 303.343 70.800,303.266 70.617,303.404 70.393 C 303.542 70.170,303.803 70.078,303.983 70.190 C 304.163 70.301,304.793 69.761,305.382 68.989 C 305.970 68.217,306.628 67.694,306.844 67.827 C 307.394 68.167,308.400 67.241,308.400 66.394 C 308.400 65.970,308.807 65.585,309.416 65.432 C 310.399 65.185,310.445 64.399,309.476 64.401 C 309.214 64.401,307.259 66.156,305.131 68.301 M310.576 66.587 C 309.960 67.053,309.928 67.177,310.420 67.187 C 310.928 67.198,316.952 73.219,324.538 81.300 C 325.313 82.125,326.203 82.800,326.517 82.800 C 327.138 82.800,330.000 85.335,330.000 85.885 C 330.000 86.071,330.388 86.488,330.862 86.812 C 331.337 87.135,332.007 87.715,332.351 88.100 C 333.316 89.178,333.776 88.929,333.002 87.747 C 332.025 86.256,325.692 80.042,325.423 80.310 C 325.300 80.433,325.200 80.233,325.200 79.867 C 325.200 79.500,325.053 79.245,324.873 79.300 C 324.491 79.417,321.600 76.452,321.600 75.944 C 321.600 75.755,321.300 75.600,320.933 75.600 C 320.567 75.600,320.376 75.491,320.509 75.358 C 320.825 75.042,318.983 73.200,318.352 73.200 C 318.085 73.200,317.969 73.098,318.093 72.973 C 318.284 72.783,311.850 66.000,311.478 66.000 C 311.409 66.000,311.004 66.264,310.576 66.587 M333.863 89.070 C 333.380 89.553,333.592 90.400,334.197 90.400 C 334.525 90.400,335.325 90.957,335.975 91.637 C 336.625 92.317,337.344 92.758,337.572 92.617 C 337.816 92.467,337.448 91.831,336.684 91.080 C 334.797 89.227,334.160 88.773,333.863 89.070 M337.600 93.020 C 337.600 93.141,337.861 93.744,338.180 94.361 L 338.759 95.481 330.080 104.132 C 275.886 158.143,209.164 225.246,208.869 226.037 C 208.796 226.230,209.088 226.886,209.517 227.494 C 210.682 229.145,212.091 232.071,214.193 237.200 C 215.229 239.730,216.330 242.385,216.639 243.100 C 216.947 243.815,217.449 244.985,217.753 245.700 C 218.893 248.384,219.531 249.854,220.353 251.696 C 220.819 252.738,221.200 253.685,221.200 253.800 C 221.200 253.915,221.581 254.862,222.047 255.904 C 222.512 256.947,223.162 258.430,223.490 259.200 C 223.819 259.970,224.338 261.123,224.644 261.761 C 224.950 262.400,225.200 263.217,225.200 263.576 C 225.200 263.954,225.555 264.257,226.041 264.293 C 226.681 264.341,226.835 264.176,226.685 263.602 C 226.503 262.907,241.575 247.545,246.014 243.900 C 246.751 243.295,247.202 242.800,247.015 242.800 C 246.464 242.800,248.893 240.850,250.245 240.207 C 251.671 239.529,252.243 238.917,253.153 237.095 C 253.537 236.326,254.416 235.511,255.317 235.089 C 256.151 234.698,256.727 234.205,256.596 233.994 C 256.464 233.780,256.632 233.714,256.976 233.846 C 257.357 233.992,257.701 233.802,257.874 233.350 C 258.230 232.424,260.398 230.240,261.309 229.890 C 261.689 229.744,262.000 229.419,262.000 229.167 C 262.000 228.652,264.765 226.000,265.302 226.000 C 265.492 226.000,265.556 225.853,265.445 225.673 C 265.334 225.494,265.775 225.033,266.424 224.650 C 267.073 224.266,267.878 223.423,268.212 222.776 C 268.547 222.129,268.951 221.599,269.110 221.598 C 269.270 221.597,270.085 220.967,270.922 220.198 C 271.760 219.429,272.329 218.800,272.187 218.800 C 272.045 218.800,272.530 218.200,273.265 217.467 C 273.999 216.733,274.735 216.204,274.900 216.290 C 275.065 216.377,275.200 216.249,275.200 216.008 C 275.200 215.766,276.370 214.432,277.800 213.044 C 279.230 211.655,280.400 210.313,280.400 210.060 C 280.400 209.807,280.655 209.600,280.967 209.600 C 281.278 209.600,281.593 209.465,281.667 209.300 C 281.740 209.135,282.399 208.505,283.131 207.900 C 283.863 207.295,284.345 206.800,284.202 206.800 C 284.060 206.800,284.213 206.530,284.543 206.200 C 284.873 205.870,285.234 205.600,285.345 205.600 C 285.688 205.600,289.200 201.862,289.200 201.497 C 289.200 201.308,289.380 201.264,289.600 201.400 C 289.820 201.536,290.000 201.337,290.000 200.957 C 290.000 200.577,290.121 200.388,290.270 200.537 C 290.418 200.685,290.867 200.310,291.267 199.703 C 291.667 199.096,291.996 198.735,291.997 198.900 C 291.999 199.065,292.331 198.885,292.737 198.500 C 293.142 198.115,293.401 197.665,293.313 197.500 C 293.225 197.335,293.450 197.200,293.814 197.200 C 294.177 197.200,294.559 196.885,294.662 196.500 C 294.765 196.115,295.558 195.270,296.425 194.623 C 297.291 193.976,298.000 193.254,298.000 193.018 C 298.000 192.782,298.405 192.412,298.900 192.195 C 299.395 191.978,299.978 191.395,300.195 190.900 C 300.412 190.405,300.817 190.000,301.095 190.000 C 301.373 190.000,301.600 189.820,301.600 189.600 C 301.600 189.152,305.701 185.064,307.100 184.117 C 307.595 183.782,308.000 183.259,308.000 182.954 C 308.000 182.649,308.146 182.400,308.323 182.400 C 308.737 182.400,313.548 177.707,314.595 176.282 C 315.032 175.687,315.628 175.200,315.919 175.200 C 316.209 175.200,316.336 175.020,316.200 174.800 C 316.064 174.580,316.244 174.400,316.600 174.400 C 316.956 174.400,317.158 174.255,317.048 174.078 C 316.939 173.901,317.642 173.136,318.610 172.378 C 319.578 171.620,320.377 170.758,320.385 170.463 C 320.393 170.167,320.715 169.840,321.100 169.736 C 321.485 169.632,322.250 168.947,322.800 168.213 C 323.350 167.479,323.935 166.961,324.100 167.063 C 324.265 167.164,324.400 167.044,324.400 166.795 C 324.400 166.185,325.442 165.176,325.752 165.486 C 325.889 165.622,326.000 165.423,326.000 165.043 C 326.000 164.663,326.180 164.464,326.400 164.600 C 326.620 164.736,326.800 164.609,326.800 164.319 C 326.800 164.028,327.292 163.432,327.893 162.995 C 328.924 162.246,332.652 158.587,335.467 155.561 C 336.164 154.813,337.289 153.708,337.967 153.106 C 338.645 152.505,339.200 151.836,339.200 151.621 C 339.200 151.405,339.581 151.024,340.047 150.775 C 341.200 150.158,343.996 147.494,344.009 147.000 C 344.014 146.780,344.735 146.070,345.609 145.423 C 346.484 144.776,347.200 144.040,347.200 143.787 C 347.200 143.535,347.673 143.113,348.252 142.849 C 348.830 142.586,349.189 142.255,349.048 142.115 C 348.908 141.975,349.290 141.533,349.897 141.133 C 350.504 140.733,350.852 140.404,350.671 140.403 C 350.306 140.400,351.391 139.221,351.884 139.086 C 352.766 138.844,357.141 133.794,357.343 132.786 C 357.569 131.657,359.601 130.134,360.149 130.683 C 360.287 130.821,360.400 130.201,360.400 129.306 C 360.400 128.222,360.961 126.497,362.082 124.139 C 363.689 120.758,364.018 118.911,363.114 118.348 C 362.863 118.192,362.901 118.033,363.216 117.928 C 363.494 117.835,363.110 117.457,362.361 117.089 C 361.613 116.720,361.163 116.414,361.361 116.409 C 361.560 116.404,361.338 116.067,360.868 115.659 C 360.399 115.252,360.146 114.773,360.307 114.595 C 360.468 114.417,360.399 114.386,360.153 114.526 C 359.602 114.841,358.284 113.461,358.699 113.003 C 358.865 112.821,358.775 112.801,358.500 112.959 C 358.182 113.142,358.000 112.996,358.000 112.557 C 358.000 112.177,357.898 111.968,357.774 112.093 C 357.476 112.391,354.171 109.216,354.300 108.756 C 354.355 108.560,354.119 108.400,353.776 108.400 C 353.433 108.400,353.264 108.220,353.400 108.000 C 353.536 107.780,353.377 107.600,353.046 107.600 C 352.716 107.600,352.126 107.060,351.736 106.400 C 351.346 105.740,350.869 105.200,350.674 105.200 C 350.334 105.200,349.737 104.608,346.880 101.441 C 346.152 100.634,345.362 100.100,345.118 100.251 C 344.852 100.415,344.790 100.340,344.962 100.062 C 345.133 99.785,344.987 99.600,344.600 99.600 C 344.244 99.600,344.051 99.440,344.172 99.245 C 344.293 99.050,344.089 98.645,343.719 98.345 C 343.141 97.877,343.090 97.885,343.354 98.400 C 343.523 98.730,343.288 98.576,342.833 98.058 C 342.377 97.540,342.107 96.951,342.232 96.748 C 342.357 96.546,342.311 96.406,342.130 96.437 C 341.205 96.598,340.799 96.314,340.794 95.500 C 340.789 94.772,340.714 94.715,340.400 95.200 C 340.060 95.726,340.011 95.723,340.006 95.170 C 340.003 94.823,339.583 94.148,339.074 93.670 C 338.175 92.825,337.600 92.571,337.600 93.020 M366.400 121.727 C 366.400 122.474,367.052 122.962,367.368 122.452 C 367.491 122.253,367.323 121.868,366.996 121.596 C 366.511 121.194,366.400 121.219,366.400 121.727 M208.510 164.800 C 208.477 165.240,208.619 165.600,208.825 165.600 C 209.031 165.600,209.200 165.240,209.200 164.800 C 209.200 164.360,209.058 164.000,208.885 164.000 C 208.712 164.000,208.543 164.360,208.510 164.800 M206.400 166.384 C 206.400 166.596,206.006 167.136,205.525 167.584 C 205.031 168.044,204.869 168.400,205.153 168.400 C 205.680 168.400,206.535 167.686,206.829 167.000 C 206.923 166.780,207.148 166.649,207.330 166.710 C 207.511 166.770,207.545 166.635,207.406 166.410 C 207.086 165.892,206.400 165.875,206.400 166.384 M203.100 169.957 C 202.243 170.827,202.183 171.658,203.000 171.345 C 203.330 171.218,203.600 170.864,203.600 170.557 C 203.600 170.251,203.780 170.000,204.000 170.000 C 204.220 170.000,204.400 169.820,204.400 169.600 C 204.400 169.013,203.895 169.151,203.100 169.957 M198.575 174.431 C 197.929 175.108,197.666 175.603,197.990 175.531 C 198.759 175.360,199.380 174.772,199.710 173.900 C 200.072 172.943,199.933 173.008,198.575 174.431 M196.400 176.424 C 196.400 176.657,196.608 176.719,196.862 176.562 C 197.141 176.389,197.215 176.452,197.049 176.721 C 196.898 176.965,196.511 177.064,196.190 176.941 C 195.827 176.801,195.483 177.047,195.283 177.588 C 195.105 178.067,194.794 178.491,194.590 178.530 C 194.386 178.568,194.166 178.946,194.101 179.369 C 193.985 180.128,193.996 180.128,194.889 179.369 C 197.239 177.371,198.098 176.000,197.000 176.000 C 196.670 176.000,196.400 176.191,196.400 176.424 M192.863 180.223 C 192.606 180.785,192.230 181.142,192.027 181.017 C 191.824 180.891,191.542 181.154,191.400 181.600 C 191.258 182.046,190.975 182.308,190.771 182.182 C 190.567 182.056,190.400 182.233,190.400 182.576 C 190.400 183.920,193.254 181.470,193.518 179.900 C 193.686 178.897,193.403 179.037,192.863 180.223 M189.205 183.591 C 188.711 184.514,186.888 186.400,186.491 186.400 C 186.107 186.400,183.200 189.625,183.200 190.051 C 183.200 190.243,183.013 190.400,182.784 190.400 C 182.252 190.400,179.200 193.500,179.200 194.040 C 179.200 194.264,178.992 194.319,178.738 194.162 C 178.452 193.985,178.385 194.052,178.562 194.338 C 179.009 195.061,178.953 195.106,184.870 189.200 C 187.956 186.120,190.272 183.600,190.017 183.600 C 189.762 183.600,189.664 183.420,189.800 183.200 C 189.936 182.980,189.953 182.800,189.838 182.800 C 189.722 182.800,189.438 183.156,189.205 183.591 M176.600 196.000 C 176.202 196.440,176.039 196.806,176.238 196.813 C 176.437 196.820,176.251 197.090,175.824 197.413 C 175.142 197.928,175.131 198.000,175.727 198.000 C 176.102 198.000,176.721 197.620,177.104 197.155 C 177.487 196.691,178.038 196.061,178.329 195.755 C 178.771 195.291,178.732 195.200,178.091 195.200 C 177.669 195.200,176.998 195.560,176.600 196.000 M171.050 202.283 C 170.924 202.409,170.917 202.666,171.034 202.856 C 171.315 203.310,172.400 203.300,172.400 202.843 C 172.400 202.401,171.362 201.971,171.050 202.283 M169.200 204.773 C 169.200 205.008,169.740 205.200,170.400 205.200 C 171.060 205.200,171.600 205.380,171.600 205.600 C 171.600 205.820,172.050 206.000,172.600 206.000 C 173.150 206.000,173.600 206.180,173.600 206.400 C 173.600 206.620,173.872 206.800,174.205 206.800 C 174.538 206.800,175.123 206.959,175.505 207.153 C 175.887 207.348,176.740 207.729,177.400 208.000 C 178.060 208.271,178.913 208.652,179.295 208.847 C 179.677 209.041,180.262 209.200,180.595 209.200 C 180.928 209.200,181.200 209.380,181.200 209.600 C 181.200 209.820,181.650 210.000,182.200 210.000 C 182.750 210.000,183.200 210.180,183.200 210.400 C 183.200 210.620,183.526 210.800,183.925 210.800 C 184.324 210.800,185.395 211.160,186.306 211.600 C 187.216 212.040,188.204 212.400,188.501 212.400 C 188.797 212.400,189.211 212.552,189.420 212.738 C 189.629 212.923,190.880 213.493,192.200 214.005 C 199.366 216.779,202.586 219.041,207.647 224.857 C 208.597 225.948,208.905 225.762,208.249 224.495 C 207.488 223.023,204.012 219.790,200.800 217.565 C 198.373 215.884,197.124 215.203,194.900 214.346 C 194.405 214.156,193.505 213.796,192.900 213.546 C 192.295 213.297,191.440 212.960,191.000 212.797 C 190.068 212.453,186.517 210.875,185.505 210.356 C 185.123 210.160,184.538 210.000,184.205 210.000 C 183.872 210.000,183.600 209.820,183.600 209.600 C 183.600 209.380,183.238 209.200,182.795 209.200 C 182.352 209.200,181.632 209.020,181.195 208.800 C 180.758 208.580,180.042 208.220,179.605 208.000 C 179.168 207.780,178.538 207.600,178.205 207.600 C 177.872 207.600,177.600 207.420,177.600 207.200 C 177.600 206.980,177.328 206.800,176.995 206.800 C 176.662 206.800,176.032 206.620,175.595 206.400 C 173.651 205.422,173.296 205.286,171.987 205.021 C 171.224 204.867,170.285 204.652,169.900 204.543 C 169.515 204.435,169.200 204.538,169.200 204.773 " stroke="none" fill="#f59b1f" fill-rule="evenodd"></path></g></svg>